<svg width="63" height="30" viewBox="0 0 63 30" fill="none" xmlns="http://www.w3.org/2000/svg">
<path d="M27.8228 5C28.1586 5 28.4878 5.03344 28.817 5.09363C29.1462 5.15381 29.4557 5.24744 29.7454 5.36113C30.0351 5.47482 30.305 5.61526 30.5487 5.77576C30.7923 5.93626 30.9964 6.10345 31.1676 6.28401C31.2795 6.41107 31.4507 6.6117 31.668 6.8792C31.8853 7.1467 32.1025 7.48108 32.3264 7.86896C32.5437 8.25684 32.7346 8.69822 32.8992 9.19309C33.0573 9.68129 33.1428 10.2163 33.1428 10.7847C33.1231 11.4735 33.0309 12.0687 32.8729 12.577C32.7083 13.0852 32.5239 13.5199 32.3132 13.8744C32.1025 14.2355 31.8853 14.5298 31.6746 14.7571C31.4639 14.9845 31.2993 15.1584 31.1807 15.2855C31.0161 15.466 30.7989 15.6332 30.5421 15.7937C30.2787 15.9542 30.0022 16.088 29.6993 16.2083C29.3964 16.322 29.087 16.4156 28.7643 16.4758C28.4417 16.536 28.1322 16.5695 27.8425 16.5695C27.5067 16.5695 27.1775 16.536 26.8417 16.4758C26.5059 16.4156 26.1965 16.322 25.9068 16.2083C25.617 16.0946 25.3471 15.9542 25.1035 15.7937C24.8599 15.6332 24.6558 15.466 24.4846 15.2855C24.3726 15.1584 24.2014 14.9578 23.9842 14.6903C23.7669 14.4228 23.5496 14.0951 23.3257 13.7072C23.1085 13.3193 22.9175 12.8846 22.7529 12.3897C22.5883 11.9016 22.5093 11.3599 22.5093 10.778C22.529 10.0892 22.6212 9.49403 22.7924 8.98578C22.957 8.47753 23.148 8.04284 23.3521 7.6884C23.5628 7.32727 23.7735 7.03302 23.9842 6.80564C24.1949 6.57826 24.3595 6.40439 24.478 6.27732C24.6426 6.09676 24.8599 5.92957 25.1166 5.76907C25.3734 5.60857 25.6566 5.47482 25.9594 5.35444C26.2623 5.24075 26.5783 5.14713 26.901 5.08694C27.217 5.03344 27.5265 5 27.8228 5ZM24.2936 10.6309C24.3134 10.6109 24.32 10.5774 24.3068 10.5373C24.2936 10.4972 24.2673 10.4771 24.2146 10.4771C24.1751 10.4771 24.1422 10.5172 24.1224 10.5908C24.0895 10.5908 24.0763 10.6042 24.0763 10.6376C24.0566 10.6978 24.0698 10.7513 24.1224 10.778C24.1224 10.7981 24.1356 10.8115 24.1553 10.8115C24.1949 10.8115 24.2278 10.7914 24.2475 10.7513C24.2673 10.6978 24.2804 10.6577 24.2936 10.6309ZM24.3726 12.6572C24.4055 12.6572 24.4187 12.6372 24.4187 12.5971C24.4187 12.5569 24.4055 12.5302 24.3726 12.5168C24.3331 12.5302 24.3134 12.5569 24.3134 12.5971C24.3068 12.6372 24.3265 12.6572 24.3726 12.6572ZM24.4319 9.32685C24.4648 9.32685 24.478 9.30678 24.478 9.26666C24.478 9.22653 24.4648 9.20647 24.4319 9.20647C24.399 9.20647 24.3858 9.22653 24.3858 9.26666C24.3858 9.30678 24.4055 9.32685 24.4319 9.32685ZM25.2286 8.81859C25.2417 8.72497 25.2154 8.63134 25.1496 8.53103C25.1364 8.51765 25.1298 8.51097 25.1232 8.49759C25.1166 8.48421 25.1035 8.47084 25.0837 8.45078C25.0442 8.43071 25.0047 8.44409 24.9718 8.49759C24.952 8.55109 24.9586 8.59122 24.985 8.62465C25.0047 8.66478 25.0179 8.68484 25.0179 8.67815C25.0179 8.67147 25.0311 8.69153 25.0508 8.73165V8.76509C25.0508 8.79853 25.0508 8.83197 25.0574 8.86541C25.064 8.90553 25.0903 8.9189 25.143 8.9189C25.1693 8.91222 25.1957 8.87209 25.2286 8.81859ZM25.1364 14.0683C25.1693 14.0683 25.1825 14.0483 25.1825 14.0081C25.1825 13.968 25.1693 13.9479 25.1364 13.9479C25.0969 13.9479 25.0771 13.968 25.0771 14.0081C25.0706 14.0483 25.0969 14.0683 25.1364 14.0683ZM25.8212 7.85558C25.8607 7.85558 25.8804 7.83552 25.8804 7.7954C25.8804 7.75527 25.8607 7.72852 25.8212 7.71515C25.7882 7.72852 25.7751 7.75527 25.7751 7.7954C25.7751 7.83552 25.7948 7.85558 25.8212 7.85558ZM29.133 12.6572C29.2055 12.6171 29.2911 12.5569 29.3964 12.4901C29.5018 12.4232 29.6005 12.3162 29.6993 12.1824C29.798 12.042 29.8836 11.8681 29.9561 11.6407C30.0285 11.42 30.068 11.1325 30.0812 10.7847C30.068 10.437 30.0285 10.1561 29.9561 9.93541C29.8836 9.72141 29.798 9.54085 29.6993 9.4071C29.6005 9.26666 29.5018 9.16634 29.3964 9.09278C29.2911 9.01922 29.2055 8.95903 29.133 8.9189C28.8499 8.71828 28.6195 8.60459 28.4285 8.57115C28.2442 8.53771 28.0927 8.52434 27.9742 8.52434C27.9018 8.52434 27.7635 8.53771 27.5594 8.57115C27.3553 8.60459 27.1117 8.71828 26.8154 8.9189C26.743 8.95903 26.6508 9.01922 26.552 9.09278C26.4467 9.16634 26.3413 9.27334 26.2426 9.4071C26.1372 9.54753 26.0516 9.72141 25.9792 9.93541C25.9068 10.1494 25.8673 10.437 25.8673 10.7847C25.8673 11.1325 25.9068 11.42 25.9792 11.6407C26.0516 11.8614 26.1372 12.042 26.2426 12.1824C26.3479 12.3229 26.4532 12.4232 26.552 12.4901C26.6574 12.5569 26.743 12.6171 26.8154 12.6572C27.1051 12.8579 27.3421 12.9716 27.5265 13.005C27.7108 13.0384 27.8557 13.0518 27.9742 13.0518C28.0466 13.0518 28.1849 13.0384 28.3956 13.005C28.6063 12.9716 28.8499 12.8579 29.133 12.6572ZM26.4598 14.1285C26.4928 14.0951 26.4993 14.0549 26.4862 13.9948C26.473 13.9346 26.4335 13.9145 26.3874 13.9212C26.3874 13.9346 26.3677 13.9346 26.3281 13.9346C26.3084 13.9346 26.2886 13.9212 26.2689 13.9011C26.2294 13.8811 26.2096 13.8677 26.2228 13.8677C26.203 13.8543 26.1701 13.861 26.1306 13.8811C26.1109 13.9011 26.0977 13.9279 26.0977 13.9613C26.0977 13.9814 26.1109 14.0014 26.1306 14.0215V14.0549C26.1306 14.0683 26.1372 14.075 26.1438 14.0884C26.1438 14.1084 26.1438 14.1218 26.1504 14.1285C26.157 14.1352 26.157 14.1419 26.157 14.1553C26.1175 14.2422 26.1306 14.3024 26.203 14.3425H26.2491H26.3084C26.3479 14.3224 26.3677 14.289 26.3677 14.2489C26.3677 14.2088 26.3545 14.1753 26.3216 14.1553H26.3347C26.3677 14.1553 26.394 14.1486 26.4137 14.1419L26.4467 14.1285H26.4598ZM26.9339 7.14002C26.901 7.15339 26.8878 7.18014 26.8878 7.22027C26.8878 7.26039 26.901 7.28046 26.9339 7.28046C26.9668 7.28046 26.98 7.26039 26.98 7.22027C26.98 7.18014 26.9602 7.15339 26.9339 7.14002ZM27.5265 14.911C27.5462 14.931 27.5594 14.9243 27.5594 14.8775L27.5462 14.8641V14.8508C27.5462 14.8307 27.5462 14.8173 27.5397 14.8173C27.5331 14.8173 27.5331 14.8106 27.5331 14.8039H27.5199C27.5001 14.7906 27.4804 14.7906 27.4738 14.8039C27.4606 14.8173 27.4606 14.8307 27.4738 14.8508C27.4606 14.8575 27.4804 14.8775 27.5265 14.911ZM27.6977 7.07983C27.6648 7.07983 27.6516 7.10658 27.6516 7.15339C27.6516 7.2002 27.6648 7.22696 27.6977 7.22696C27.7372 7.22696 27.7569 7.2002 27.7569 7.15339C27.7569 7.09989 27.7372 7.07983 27.6977 7.07983ZM28.5536 14.0215C28.5536 14.0014 28.547 13.9814 28.5405 13.9613C28.5207 13.9078 28.4878 13.8878 28.4483 13.9011C28.4088 13.9145 28.389 13.9479 28.389 14.0148C28.3759 14.1018 28.3693 14.1619 28.3627 14.2021C28.3561 14.2422 28.3363 14.3158 28.31 14.4094V14.4428C28.2573 14.4428 28.2244 14.4629 28.2178 14.503C28.2047 14.5431 28.2112 14.5899 28.231 14.6301C28.2442 14.6501 28.2639 14.6635 28.2903 14.6635L28.3232 14.6969L28.3561 14.7103C28.389 14.7438 28.4219 14.7237 28.468 14.6635C28.468 14.6234 28.4614 14.5833 28.4549 14.5498C28.4746 14.5097 28.4878 14.4829 28.4878 14.4696C28.5075 14.4161 28.5207 14.3626 28.5273 14.3024C28.5339 14.2422 28.5405 14.182 28.5536 14.1218C28.5536 14.1084 28.5536 14.0951 28.5602 14.0817C28.5536 14.0616 28.5536 14.0416 28.5536 14.0215ZM29.2581 14.9377C29.2976 14.9176 29.324 14.8842 29.3306 14.8441C29.3372 14.8039 29.324 14.7705 29.2911 14.7504C29.2713 14.7304 29.2318 14.7304 29.166 14.7504C29.1265 14.7638 29.0738 14.7973 29.0079 14.8641L28.9618 14.8775C28.9421 14.8976 28.9289 14.9176 28.9289 14.9243C28.896 14.9578 28.896 14.9979 28.9223 15.0514C28.9487 15.1049 28.9882 15.1116 29.0409 15.0848C29.0935 15.0514 29.133 15.0246 29.1594 15.0046C29.1791 14.9845 29.2121 14.9578 29.2581 14.9377ZM29.3174 7.14002C29.2581 7.17345 29.2318 7.22027 29.2581 7.28046L29.2911 7.39414L29.3503 7.50783C29.3635 7.52121 29.3635 7.52789 29.3635 7.54127C29.3635 7.55464 29.3767 7.56133 29.3964 7.57471C29.4359 7.58808 29.4688 7.57471 29.4886 7.53458C29.5083 7.49446 29.5083 7.46102 29.4886 7.43427C29.4754 7.41421 29.4688 7.39414 29.4623 7.37408C29.4557 7.35402 29.4425 7.33396 29.4227 7.31389V7.30052C29.4227 7.26039 29.4096 7.22695 29.3898 7.20689C29.3964 7.15339 29.3701 7.14002 29.3174 7.14002ZM30.2721 13.7206C30.3116 13.7072 30.3314 13.6804 30.3314 13.6403C30.3314 13.6002 30.3116 13.5801 30.2721 13.5801C30.2392 13.5801 30.226 13.6002 30.226 13.6403C30.226 13.6804 30.2392 13.7072 30.2721 13.7206ZM31.0359 8.63134C31.003 8.63134 30.9898 8.65809 30.9898 8.7049C30.9898 8.75172 31.003 8.77847 31.0359 8.77847C31.0754 8.77847 31.0951 8.75172 31.0951 8.7049C31.0951 8.6514 31.0754 8.63134 31.0359 8.63134ZM31.1149 12.9448C31.1478 12.9314 31.161 12.9114 31.161 12.8712C31.161 12.8311 31.1478 12.8177 31.1149 12.8177C31.0754 12.8177 31.0556 12.8378 31.0556 12.8712C31.0491 12.9114 31.0688 12.9314 31.1149 12.9448ZM31.3322 10.0224C31.2795 10.0023 31.2532 10.0224 31.2466 10.0959C31.24 10.1628 31.2663 10.2029 31.319 10.2163H31.3651C31.3849 10.2364 31.4046 10.2497 31.4112 10.2497V10.2965H31.4244C31.4441 10.33 31.4639 10.35 31.4836 10.35C31.5034 10.3567 31.5231 10.3567 31.5429 10.3567C31.6285 10.3567 31.6548 10.3166 31.6351 10.2297C31.6153 10.1762 31.589 10.1494 31.556 10.1494H31.5495L31.5034 10.1026C31.4902 10.0892 31.477 10.0759 31.4507 10.0558C31.4244 10.0357 31.4046 10.0224 31.398 10.0224H31.3322ZM31.3914 11.8815C31.4244 11.8815 31.4375 11.8614 31.4375 11.8213C31.4375 11.7812 31.4244 11.7544 31.3914 11.7411C31.3519 11.7544 31.3322 11.7812 31.3322 11.8213C31.3322 11.8614 31.3519 11.8815 31.3914 11.8815Z" fill="#F6EDE6"/>
<path d="M42.4003 10.6777C42.4332 10.7379 42.453 10.865 42.4596 11.0522C42.4727 11.2395 42.4793 11.4535 42.4859 11.7076C42.4925 11.9617 42.4925 12.2359 42.4859 12.5302C42.4793 12.8244 42.4727 13.1254 42.4727 13.4196C42.4662 13.7139 42.4661 14.0014 42.4661 14.2756C42.4661 14.5498 42.4727 14.7906 42.4793 14.9912C42.4991 15.359 42.4925 15.6934 42.4661 15.9809C42.4332 16.2685 42.3806 16.4892 42.3081 16.6363C42.2752 16.6965 42.2028 16.7433 42.0908 16.7634C41.9789 16.7835 41.8472 16.7968 41.709 16.7968C41.5707 16.7968 41.4324 16.7968 41.2942 16.7901C41.1559 16.7835 41.0505 16.7835 40.9649 16.7835C40.8925 16.7835 40.7937 16.7835 40.6752 16.7901C40.5567 16.7968 40.4382 16.7968 40.3131 16.7901C40.1946 16.7835 40.0827 16.7701 39.9773 16.7433C39.872 16.7166 39.8061 16.6698 39.7732 16.5895C39.7534 16.5293 39.7403 16.3956 39.7403 16.1949C39.5296 16.3019 39.3057 16.3755 39.0621 16.4156C38.8185 16.4558 38.5749 16.4758 38.3378 16.4758C37.9428 16.4758 37.5477 16.4223 37.1592 16.3086C36.7708 16.1949 36.4218 16.0545 36.1189 15.8739C35.8819 15.7268 35.6185 15.5396 35.3288 15.3189C35.0457 15.0982 34.7823 14.7839 34.5387 14.3826C34.3017 13.9814 34.1041 13.4731 33.9593 12.8512C33.8144 12.2359 33.7552 11.4602 33.7881 10.5306C33.8079 9.83509 33.8671 9.2399 33.9593 8.74502C34.0515 8.25014 34.1634 7.8422 34.2951 7.50782C34.4268 7.17344 34.565 6.90594 34.7165 6.69863C34.8679 6.49131 35.0194 6.33081 35.1708 6.21044C35.3222 6.09006 35.4671 5.99644 35.5988 5.92287C35.737 5.856 35.8424 5.79581 35.928 5.74231C36.2704 5.50156 36.6786 5.31431 37.1461 5.19393C37.6136 5.07355 38.1008 5.01337 38.5946 5.01337C39.4703 5.01337 40.1814 5.17387 40.7279 5.49487C41.2744 5.81587 41.7155 6.37763 42.0448 7.16676C42.0645 7.22694 42.0908 7.3072 42.1172 7.38745C42.1435 7.47438 42.1633 7.56132 42.1699 7.64826C42.183 7.7352 42.1699 7.82214 42.1435 7.90907C42.1172 7.99601 42.0645 8.06958 41.9789 8.12977C41.9262 8.16989 41.8209 8.23677 41.6563 8.33039C41.4917 8.41733 41.3402 8.50427 41.1954 8.59121C41.0374 8.66477 40.8596 8.74502 40.6621 8.81858C40.4645 8.89883 40.2933 8.92558 40.1485 8.90552C40.0431 8.88546 39.9312 8.81858 39.8061 8.69821C39.681 8.58452 39.5559 8.46414 39.4308 8.35045C39.2728 8.16989 39.1016 8.04951 38.9172 7.99601C38.7329 7.93583 38.5617 7.90907 38.4168 7.90907C38.272 7.90907 38.1535 7.92245 38.0745 7.95589C37.9625 7.99601 37.8243 8.06958 37.6794 8.1632C37.528 8.25683 37.3897 8.41733 37.258 8.63133C37.1263 8.84533 37.0144 9.14627 36.9222 9.52077C36.83 9.89528 36.7839 10.3835 36.7839 10.9853C36.7839 11.5805 36.83 12.0754 36.9354 12.4767C37.0341 12.8779 37.1592 13.2056 37.3041 13.4597C37.449 13.7139 37.607 13.8944 37.7716 14.0081C37.9362 14.1218 38.081 14.182 38.2061 14.2087C38.3839 14.2288 38.5551 14.2221 38.7263 14.182C38.8975 14.1419 39.0489 14.0683 39.1872 13.9613C39.3255 13.8476 39.4308 13.7005 39.5164 13.5199C39.602 13.3327 39.6481 13.0986 39.6547 12.8177C39.5954 12.8311 39.4901 12.8378 39.3584 12.8445C39.2201 12.8512 39.0818 12.8445 38.9304 12.8378C38.779 12.8244 38.6473 12.811 38.5222 12.791C38.4037 12.7709 38.3312 12.7308 38.3115 12.6773C38.272 12.5837 38.2391 12.4566 38.2259 12.2961C38.2127 12.1356 38.1996 11.9751 38.1996 11.8079C38.1996 11.6407 38.1996 11.4802 38.2061 11.3398C38.2127 11.1994 38.2127 11.0857 38.2127 11.0121C38.2127 10.865 38.2259 10.7379 38.2522 10.6309C38.2786 10.5239 38.351 10.4437 38.4629 10.3768C38.5156 10.3433 38.6209 10.33 38.7921 10.3233C38.9567 10.3166 39.1345 10.3166 39.3123 10.3166C39.4967 10.3166 39.6678 10.3166 39.8324 10.3166C39.9971 10.3166 40.109 10.3099 40.1617 10.3032C40.2143 10.2898 40.346 10.2832 40.5699 10.2698C40.7872 10.2564 41.0242 10.2631 41.2744 10.2765C41.5246 10.2898 41.7551 10.33 41.9789 10.3902C42.2094 10.4437 42.3476 10.5373 42.4003 10.6777ZM35.0655 11.1993C35.0786 11.1592 35.0786 11.099 35.0786 11.0255C35.0786 10.9853 35.0655 10.9586 35.0457 10.9452C35.0259 10.9118 34.9996 10.9051 34.9667 10.9185C34.9338 10.9318 34.9272 10.9653 34.9338 11.0054C34.9338 11.0589 34.9338 11.079 34.9338 11.079C34.9338 11.0723 34.9272 11.0857 34.9206 11.1191V11.1325H34.9074C34.8679 11.1525 34.8482 11.1927 34.8482 11.2462C34.8482 11.2997 34.8679 11.3331 34.9074 11.3398C34.9404 11.3532 34.9667 11.3465 34.9864 11.3264C35.0128 11.3064 35.0391 11.2595 35.0655 11.1993ZM35.184 9.74146C35.2037 9.80165 35.2432 9.82171 35.2959 9.78828L35.3881 9.69465C35.4473 9.67459 35.4737 9.63446 35.4473 9.56759C35.4605 9.54753 35.4605 9.52746 35.4473 9.5074C35.4342 9.48734 35.421 9.47396 35.4012 9.47396C35.3881 9.47396 35.3815 9.48065 35.3683 9.48734C35.3552 9.47396 35.342 9.47396 35.3222 9.48734L35.2301 9.58096H35.2169V9.59434C35.1576 9.64115 35.1445 9.68796 35.184 9.74146ZM35.2959 11.8614C35.3288 11.848 35.342 11.828 35.342 11.7879C35.342 11.7477 35.3288 11.7344 35.2959 11.7344C35.2564 11.7344 35.2366 11.7544 35.2366 11.7879C35.2366 11.828 35.2564 11.8547 35.2959 11.8614ZM35.2959 12.7843C35.3288 12.7843 35.342 12.7642 35.342 12.7241C35.342 12.684 35.3288 12.6639 35.2959 12.6639C35.2564 12.6639 35.2366 12.684 35.2366 12.7241C35.2366 12.7642 35.2564 12.7843 35.2959 12.7843ZM35.4671 10.758C35.5066 10.7379 35.5264 10.7045 35.5264 10.6577C35.5264 10.6108 35.5066 10.5774 35.4671 10.5573L35.4078 10.5239H35.3617C35.3222 10.5239 35.3025 10.564 35.3025 10.6376C35.3025 10.671 35.3091 10.6911 35.3157 10.6978C35.3288 10.7112 35.342 10.7245 35.3617 10.7446C35.3947 10.7446 35.4144 10.7513 35.421 10.758H35.4671ZM36.0004 13.4196C36.0136 13.3661 35.9938 13.326 35.9477 13.2992C35.9017 13.2725 35.8687 13.2859 35.849 13.3394L35.8161 13.4196L35.7634 13.4664L35.7305 13.4999C35.7107 13.5333 35.7041 13.5667 35.7239 13.6002C35.737 13.6403 35.77 13.6537 35.8226 13.6537H35.8358C35.8753 13.6871 35.9148 13.6871 35.9477 13.6537C35.9807 13.6202 35.9872 13.5734 35.9609 13.5132L35.9741 13.4999C35.9741 13.4798 35.9741 13.4597 35.9807 13.4531C35.9938 13.4397 36.0004 13.4263 36.0004 13.4196ZM35.8556 7.55464C35.8226 7.55464 35.8095 7.5747 35.8095 7.61482C35.8095 7.65495 35.8226 7.67501 35.8556 7.67501C35.8951 7.67501 35.9148 7.65495 35.9148 7.61482C35.9214 7.5747 35.9017 7.55464 35.8556 7.55464ZM36.5272 14.182C36.5667 14.182 36.5864 14.1619 36.5864 14.1218C36.5864 14.0817 36.5667 14.0616 36.5272 14.0616C36.4942 14.0616 36.4811 14.0817 36.4811 14.1218C36.4811 14.1552 36.5008 14.182 36.5272 14.182ZM36.8103 6.83907C36.7774 6.83907 36.7642 6.85913 36.7642 6.89925C36.7642 6.93938 36.7774 6.95944 36.8103 6.95944C36.8432 6.95944 36.8564 6.93938 36.8564 6.89925C36.8564 6.85913 36.8432 6.83907 36.8103 6.83907ZM37.3239 15.038C37.3765 15.0179 37.3963 14.9778 37.3831 14.9176C37.3699 14.8574 37.3436 14.8307 37.2909 14.8307C37.2383 14.8441 37.179 14.8441 37.1197 14.8441C37.0605 14.8441 37.0144 14.8374 36.9946 14.8307C36.9551 14.8106 36.9222 14.8173 36.9025 14.8641C36.8827 14.9043 36.8761 14.9377 36.8893 14.9578C36.909 15.0179 36.9485 15.0514 37.0012 15.0514C37.0605 15.0714 37.1395 15.0714 37.2185 15.0514H37.3107L37.3239 15.038ZM37.686 6.50469C37.6728 6.52475 37.6794 6.55819 37.6926 6.59163C37.7057 6.63175 37.7321 6.65182 37.765 6.66519C37.8374 6.64513 37.8638 6.59832 37.844 6.52475C37.8308 6.47125 37.8111 6.4445 37.7716 6.43781C37.7321 6.43113 37.7057 6.45119 37.686 6.50469ZM38.746 6.22381C38.7131 6.23719 38.7 6.26394 38.7 6.30406C38.7 6.34419 38.7131 6.36425 38.746 6.36425C38.779 6.36425 38.7921 6.34419 38.7921 6.30406C38.7921 6.25725 38.779 6.2305 38.746 6.22381ZM38.858 6.36425C38.8185 6.36425 38.7987 6.391 38.7987 6.43781C38.7987 6.48463 38.8185 6.51138 38.858 6.51138C38.8909 6.51138 38.9041 6.48463 38.9041 6.43781C38.9041 6.38431 38.8843 6.36425 38.858 6.36425ZM39.6218 6.58494C39.5888 6.58494 39.5757 6.605 39.5757 6.64513C39.5757 6.68525 39.5888 6.70532 39.6218 6.70532C39.6613 6.70532 39.681 6.68525 39.681 6.64513C39.681 6.605 39.6613 6.58494 39.6218 6.58494ZM40.3197 6.95276C40.2802 6.96613 40.2538 6.99288 40.2473 7.03969C40.2407 7.08651 40.2538 7.11994 40.2868 7.14001C40.3065 7.15338 40.3263 7.15338 40.346 7.15338L40.425 7.14001C40.4843 7.09988 40.537 7.07313 40.5633 7.05976C40.5831 7.03969 40.6028 7.02632 40.6094 7.02632C40.6226 7.02632 40.6291 7.01294 40.6423 6.99288C40.6555 6.99288 40.6752 6.97951 40.7016 6.94607C40.7213 6.91263 40.7213 6.87251 40.695 6.81901C40.6687 6.7655 40.6357 6.75882 40.5962 6.78557C40.5435 6.83907 40.504 6.87251 40.4711 6.87919C40.4448 6.89926 40.3921 6.91932 40.3197 6.95276ZM40.3526 11.5939C40.3921 11.5939 40.4119 11.5739 40.4119 11.5337C40.4119 11.4936 40.3921 11.4735 40.3526 11.4735C40.3197 11.4735 40.3065 11.4936 40.3065 11.5337C40.3065 11.5739 40.3197 11.5939 40.3526 11.5939ZM40.4909 14.2556C40.5304 14.2422 40.5501 14.2221 40.5501 14.182C40.5501 14.1419 40.5304 14.1285 40.4909 14.1285C40.458 14.1285 40.4448 14.1486 40.4448 14.182C40.4448 14.2221 40.4645 14.2489 40.4909 14.2556ZM40.6818 13.2926C40.6423 13.2926 40.6226 13.3126 40.6226 13.3527C40.6226 13.3929 40.6423 13.4129 40.6818 13.4129C40.7213 13.4129 40.7411 13.3929 40.7411 13.3527C40.7411 13.3126 40.7213 13.2926 40.6818 13.2926ZM40.8662 15.3189C40.8991 15.3523 40.9254 15.3523 40.9584 15.3256C40.9913 15.2988 41.0044 15.2654 41.0044 15.2253C41.0044 15.1718 40.9781 15.1249 40.9254 15.0714C40.8728 15.0246 40.8267 14.9912 40.7872 14.9711C40.7674 14.9511 40.7477 14.9444 40.7279 14.9578C40.7082 14.9711 40.6884 14.9845 40.6818 15.0046C40.6489 15.0648 40.6621 15.1183 40.7147 15.1651C40.7542 15.1985 40.7872 15.2186 40.8003 15.2253C40.8135 15.2386 40.8398 15.2654 40.8662 15.3189ZM40.8991 11.6407C40.8662 11.6742 40.8596 11.7009 40.8859 11.7344C40.853 11.8079 40.8596 11.8681 40.8991 11.9082C40.932 11.9617 40.9715 11.9684 41.0242 11.9417C41.0637 11.9082 41.0835 11.8681 41.0835 11.8146C41.0835 11.7544 41.0703 11.7009 41.0374 11.6742C41.0374 11.6541 41.0242 11.634 41.0044 11.6274C40.9781 11.5739 40.9386 11.5805 40.8991 11.6407ZM41.0374 12.7375C41.0769 12.7375 41.0966 12.7107 41.09 12.6639C41.0835 12.6171 41.0637 12.5904 41.0374 12.5904C41.0044 12.5904 40.9913 12.6171 40.9913 12.6639C40.9913 12.7107 41.011 12.7375 41.0374 12.7375ZM41.2612 11.4067C41.202 11.4468 41.1954 11.507 41.2481 11.5805C41.2678 11.614 41.2942 11.6207 41.3271 11.6073C41.36 11.5939 41.3797 11.5672 41.3863 11.5337C41.4061 11.4936 41.3995 11.4535 41.3732 11.42C41.3337 11.3866 41.3007 11.3866 41.2612 11.4067ZM41.4127 14.8574C41.4258 14.8173 41.4127 14.7772 41.3863 14.7438C41.36 14.7103 41.3205 14.7036 41.2678 14.7304C41.2481 14.7504 41.2349 14.7839 41.2283 14.8173C41.2217 14.8574 41.2283 14.8842 41.2546 14.9043C41.2744 14.9377 41.3007 14.9444 41.3402 14.931C41.3797 14.9176 41.4061 14.8909 41.4127 14.8574ZM41.3666 14.2087C41.3995 14.2087 41.4127 14.1887 41.4127 14.1552C41.4127 14.1151 41.3995 14.0951 41.3666 14.0817C41.3271 14.0951 41.3073 14.1151 41.3073 14.1552C41.3073 14.1954 41.3271 14.2087 41.3666 14.2087ZM41.6299 11.9417C41.6497 11.9082 41.6497 11.8681 41.6234 11.8213C41.597 11.7745 41.5641 11.7611 41.5246 11.7812C41.5114 11.7945 41.5048 11.7945 41.4917 11.7945L41.4456 11.8414L41.4127 11.8748C41.3797 11.9082 41.3666 11.935 41.3666 11.955C41.3468 12.0152 41.3666 12.062 41.4258 12.0821C41.4588 12.0955 41.4851 12.0687 41.518 12.0219C41.5378 12.0085 41.5641 11.9885 41.597 11.9617C41.6102 11.9617 41.6234 11.955 41.6299 11.9417Z" fill="#F6EDE6"/>
<path d="M48.2998 5C48.6356 5 48.9648 5.03344 49.3006 5.09363C49.6364 5.15381 49.9459 5.24744 50.2356 5.35444C50.5253 5.46813 50.7952 5.60188 51.0388 5.75569C51.2825 5.9162 51.4866 6.08338 51.6578 6.26395C51.7697 6.39101 51.9409 6.59164 52.1582 6.85914C52.3754 7.12664 52.5927 7.46102 52.8166 7.8489C53.0339 8.23677 53.2248 8.67815 53.3894 9.17303C53.5474 9.66122 53.633 10.1962 53.633 10.7647C53.6133 11.4535 53.5211 12.0487 53.3631 12.5569C53.1985 13.0652 53.0141 13.4999 52.8034 13.8543C52.5927 14.2154 52.3754 14.5097 52.1647 14.7438C51.954 14.9778 51.7894 15.1584 51.6709 15.2855C51.5063 15.466 51.289 15.6332 51.0323 15.7937C50.7689 15.9542 50.4923 16.088 50.1895 16.195C49.8866 16.3086 49.5706 16.3956 49.2479 16.4558C48.9187 16.516 48.6093 16.5494 48.3195 16.5494C47.9837 16.5494 47.6545 16.516 47.3253 16.4558C46.9961 16.3956 46.6867 16.302 46.3969 16.195C46.1072 16.0813 45.8373 15.9475 45.5937 15.7937C45.35 15.6332 45.1459 15.466 44.9747 15.2855C44.8628 15.1584 44.6916 14.9578 44.4743 14.6903C44.2571 14.4228 44.0398 14.0884 43.8159 13.7005C43.5986 13.3126 43.4077 12.8712 43.2431 12.3764C43.0785 11.8882 42.9995 11.3465 42.9995 10.7647C43.0192 10.0759 43.1114 9.48066 43.2826 8.9724C43.4472 8.46415 43.6381 8.03615 43.8423 7.68171C44.053 7.32727 44.2636 7.03301 44.4743 6.79895C44.685 6.56489 44.8496 6.38432 44.9682 6.25726C45.1328 6.0767 45.35 5.90951 45.6068 5.74901C45.8636 5.58851 46.1467 5.45475 46.4496 5.34775C46.7525 5.23407 47.062 5.14713 47.3846 5.08694C47.7006 5.03344 48.0035 5 48.2998 5ZM44.7245 11.0255C44.7443 11.0389 44.7641 11.0322 44.7772 11.0188C44.7904 11.0054 44.7904 10.9854 44.7706 10.9653C44.7575 10.9452 44.7443 10.9252 44.7245 10.9051C44.7048 10.8917 44.6785 10.885 44.6521 10.8717C44.6258 10.8583 44.5994 10.8583 44.5665 10.8583L44.5204 10.8449H44.5073C44.4743 10.8583 44.4612 10.885 44.4678 10.9252C44.4743 10.9653 44.4941 10.9854 44.5204 10.9854H44.6126C44.6258 10.9987 44.6389 10.9987 44.6587 10.9987C44.6785 10.992 44.7048 11.0054 44.7245 11.0255ZM44.9418 8.9189C44.9747 8.87878 44.9747 8.83197 44.9484 8.77847C44.9221 8.72497 44.8826 8.71828 44.8299 8.74503C44.7904 8.78515 44.7509 8.82528 44.718 8.85872C44.685 8.89215 44.6455 8.92559 44.5929 8.9724L44.5599 8.98578C44.5468 8.99916 44.5402 8.99916 44.527 8.99916C44.5138 9.01253 44.5139 9.01922 44.5139 9.03259C44.4809 9.06603 44.4809 9.10616 44.5073 9.15297C44.5336 9.19978 44.5665 9.21316 44.606 9.19309C44.6455 9.15966 44.685 9.13291 44.7245 9.10615C44.764 9.0794 44.8036 9.03928 44.8562 8.98578L44.8891 8.95234C44.9023 8.93897 44.9089 8.93897 44.9221 8.93897H44.9352V8.9189H44.9418ZM44.5665 11.5137C44.606 11.5137 44.6258 11.4936 44.6258 11.4535C44.6258 11.4134 44.606 11.3933 44.5665 11.3933C44.5336 11.3933 44.5204 11.4134 44.5204 11.4535C44.5204 11.4936 44.5336 11.5137 44.5665 11.5137ZM44.6916 12.3429C44.7245 12.3429 44.7377 12.3229 44.7377 12.2827C44.7377 12.2426 44.7245 12.2226 44.6916 12.2226C44.6521 12.2226 44.6324 12.2426 44.6324 12.2827C44.6324 12.3162 44.6521 12.3429 44.6916 12.3429ZM44.8036 9.44053C44.8365 9.42716 44.8496 9.40041 44.8496 9.36028C44.8496 9.32016 44.8365 9.3001 44.8036 9.3001C44.7641 9.3001 44.7443 9.32016 44.7443 9.36028C44.7377 9.40041 44.7575 9.42716 44.8036 9.44053ZM45.0669 13.5601C45.0998 13.5467 45.113 13.5266 45.113 13.4865C45.113 13.4464 45.0998 13.433 45.0669 13.433C45.0274 13.433 45.0077 13.4531 45.0077 13.4865C45.0011 13.5266 45.0274 13.5534 45.0669 13.5601ZM45.3961 12.5636C45.4291 12.5636 45.4422 12.5436 45.4422 12.5034C45.4422 12.4633 45.4291 12.4432 45.3961 12.4432C45.3566 12.4432 45.3369 12.4633 45.3369 12.5034C45.3303 12.5436 45.35 12.5636 45.3961 12.5636ZM45.5673 7.99602C45.62 8.01609 45.6529 7.99602 45.6595 7.93583C45.6727 7.87565 45.6463 7.82883 45.6003 7.80877C45.5476 7.78871 45.5147 7.80877 45.5081 7.86896C45.4949 7.93583 45.5147 7.97596 45.5673 7.99602ZM45.6595 13.9413C45.699 13.9413 45.7188 13.9212 45.7188 13.8811C45.7188 13.8409 45.699 13.8142 45.6595 13.8008C45.6266 13.8142 45.6134 13.8409 45.6134 13.8811C45.6134 13.9212 45.6266 13.9413 45.6595 13.9413ZM49.9063 10.7714C49.9063 10.5105 49.88 10.243 49.8273 9.96885C49.7747 9.70135 49.6891 9.45391 49.5771 9.23322C49.4652 9.01253 49.3072 8.83197 49.1031 8.69153C48.899 8.55109 48.6422 8.48421 48.3327 8.48421C48.0233 8.48421 47.7599 8.55109 47.5492 8.69153C47.3385 8.83197 47.1739 9.00584 47.0488 9.21984C46.9237 9.43385 46.8381 9.68128 46.7854 9.94879C46.7327 10.2163 46.7064 10.4905 46.7064 10.7647C46.7064 11.1124 46.7327 11.4067 46.792 11.634C46.8513 11.8681 46.9171 12.0554 46.9895 12.2025C47.062 12.3496 47.141 12.47 47.2266 12.5502C47.3122 12.6372 47.3846 12.6974 47.4438 12.7375C47.5558 12.8244 47.694 12.8913 47.8586 12.9515C48.0167 13.0117 48.1879 13.0384 48.3656 13.0384C48.6685 13.0384 48.9187 12.9649 49.1162 12.8244C49.3138 12.684 49.4718 12.4967 49.5903 12.2761C49.7088 12.0554 49.7944 11.8079 49.8405 11.5404C49.8866 11.2729 49.9063 11.0255 49.9063 10.7714ZM46.7854 7.0932C46.7722 7.11327 46.7788 7.14002 46.792 7.17345C46.8052 7.20689 46.8315 7.22027 46.8644 7.22027H46.9105C46.9105 7.20689 46.9171 7.2002 46.9237 7.18683C46.9829 7.12664 47.0224 7.07314 47.0356 7.02633C47.0554 6.9862 47.0554 6.93939 47.0356 6.88589C47.0224 6.86583 47.0093 6.84576 46.9895 6.83239C46.9698 6.81901 46.95 6.81901 46.9303 6.83908C46.8973 6.85245 46.8842 6.8792 46.8842 6.9327C46.8644 6.96614 46.8578 6.97952 46.8578 6.97952C46.8644 6.97952 46.8578 6.99289 46.8315 7.02633C46.8118 7.0397 46.7986 7.04639 46.7986 7.05977C46.7986 7.07314 46.792 7.07983 46.7854 7.0932ZM47.7533 14.5298C47.7533 14.4963 47.7401 14.4696 47.7204 14.4361C47.7006 14.4027 47.6743 14.396 47.6414 14.4027L47.5294 14.4361L47.5163 14.4495H47.4833C47.4636 14.4696 47.4504 14.4829 47.4438 14.4829C47.4373 14.4829 47.4307 14.4963 47.4175 14.5164C47.3978 14.5498 47.3978 14.5833 47.4175 14.6301C47.4373 14.6702 47.4768 14.6903 47.5294 14.6769C47.5492 14.6635 47.5887 14.6501 47.6545 14.6301C47.7204 14.6234 47.7533 14.5899 47.7533 14.5298ZM48.2208 6.57157C48.1813 6.58495 48.1615 6.6117 48.1615 6.65183C48.1615 6.69195 48.1747 6.72539 48.2076 6.74545C48.2208 6.75883 48.2208 6.76551 48.2208 6.77889C48.234 6.77889 48.2603 6.79226 48.2998 6.81233C48.3327 6.83239 48.3656 6.84576 48.4117 6.85245C48.4512 6.85914 48.4973 6.85914 48.5368 6.85914C48.5961 6.85914 48.6488 6.85245 48.6751 6.84576C48.6948 6.84576 48.7146 6.84576 48.7344 6.84576C48.7541 6.84576 48.7739 6.83239 48.7804 6.81233C48.8134 6.77889 48.8199 6.73876 48.8068 6.69195C48.7936 6.64514 48.7673 6.61839 48.7344 6.61839C48.5895 6.63845 48.4842 6.64514 48.4315 6.63176C48.3722 6.61839 48.3327 6.60501 48.2998 6.58495C48.2866 6.58495 48.28 6.57826 48.2669 6.57157C48.2537 6.55151 48.2405 6.55151 48.2208 6.57157ZM48.7936 6.27063C48.7607 6.27063 48.7475 6.29739 48.7475 6.3442C48.7475 6.39101 48.7607 6.41776 48.7936 6.41776C48.8331 6.41776 48.8529 6.39101 48.8529 6.3442C48.8595 6.2907 48.8397 6.27063 48.7936 6.27063ZM49.1887 7.2537C49.1492 7.2537 49.1294 7.28046 49.1294 7.32727C49.1294 7.37408 49.1492 7.40083 49.1887 7.40083C49.2216 7.40083 49.2348 7.38077 49.2348 7.34064C49.2348 7.28714 49.215 7.26039 49.1887 7.2537ZM49.3928 14.4294C49.4125 14.3559 49.4125 14.3024 49.3928 14.2689C49.3401 14.2088 49.2874 14.2088 49.2348 14.2823C49.2018 14.3425 49.1887 14.4228 49.1887 14.503C49.1755 14.5431 49.1821 14.5966 49.2018 14.6635C49.2018 14.7371 49.2413 14.7638 49.3138 14.7438C49.3664 14.7237 49.3796 14.6836 49.3599 14.6167V14.5833C49.3467 14.5632 49.3467 14.5498 49.3533 14.5431C49.3599 14.5364 49.3599 14.5298 49.3599 14.5164C49.3599 14.4829 49.3664 14.4629 49.373 14.4562V14.4428L49.3928 14.4294ZM49.8405 7.20689C49.88 7.22695 49.9129 7.22027 49.9393 7.19352C49.9656 7.16008 49.9722 7.12664 49.9656 7.07983C49.9656 7.04639 49.959 7.02633 49.9524 7.01964L49.9393 6.9862C49.9393 6.97283 49.9327 6.97283 49.9261 6.97283V6.93939L49.9129 6.92602C49.8932 6.89258 49.8603 6.88589 49.8273 6.91264C49.7878 6.9327 49.7747 6.96614 49.7747 7.00626C49.7615 7.02633 49.7747 7.05308 49.8076 7.08652V7.09989C49.7944 7.13333 49.8142 7.17345 49.8405 7.20689ZM50.9203 8.1699C50.973 8.14984 50.9862 8.1164 50.9664 8.07627H51.0257C51.0586 8.07627 51.0718 8.05621 51.0783 8.01609C51.0849 7.97596 51.0783 7.94252 51.052 7.92246C51.0388 7.90908 51.0323 7.90908 51.0191 7.90908L50.9401 7.86227C50.8874 7.86227 50.8479 7.8489 50.815 7.81546C50.7952 7.80208 50.7821 7.7954 50.7821 7.78871C50.7821 7.78202 50.7755 7.77533 50.7689 7.76196C50.7557 7.7419 50.7426 7.70177 50.7228 7.63489C50.7228 7.61483 50.7096 7.59477 50.6899 7.57471C50.657 7.53458 50.6174 7.53458 50.5648 7.58808C50.5319 7.62152 50.5319 7.66165 50.5648 7.71515C50.5779 7.75527 50.6043 7.82215 50.6438 7.9024C50.6767 7.9559 50.7096 7.98933 50.7557 8.00271C50.7952 8.01608 50.8347 8.02946 50.8677 8.04284C50.8479 8.0629 50.8413 8.08965 50.8545 8.1164C50.8677 8.14315 50.8874 8.16321 50.9203 8.1699ZM51.3878 12.7843V12.7709H51.3549C51.3154 12.7709 51.289 12.7776 51.2759 12.7843C51.2034 12.7977 51.1244 12.8311 51.0388 12.898C51.0257 12.9114 51.0191 12.9181 51.0059 12.9247C50.9928 12.9314 50.9862 12.9448 50.973 12.9649C50.9532 12.9983 50.9532 13.0384 50.973 13.0919C50.9928 13.1454 51.0323 13.1521 51.0849 13.1254C51.1047 13.1053 51.1244 13.0852 51.1442 13.0786C51.1639 13.0652 51.1903 13.0518 51.2232 13.0317C51.243 13.0518 51.2627 13.0652 51.2825 13.0652C51.3022 13.0652 51.3285 13.0518 51.3615 13.0251C51.3944 12.9983 51.4076 12.9782 51.4076 12.9515C51.4602 12.8779 51.4471 12.8244 51.3878 12.7843ZM51.6183 12.0219C51.6512 12.0086 51.6643 11.9818 51.6643 11.9417C51.6643 11.9016 51.6512 11.8815 51.6183 11.8815C51.5787 11.8815 51.559 11.9016 51.559 11.9417C51.559 11.9885 51.5787 12.0152 51.6183 12.0219ZM51.796 9.72141C51.7434 9.74147 51.717 9.7816 51.717 9.8351C51.7368 9.92204 51.7499 9.9956 51.7499 10.0558C51.7499 10.116 51.7499 10.1962 51.7499 10.2765C51.7499 10.2965 51.7499 10.3166 51.7434 10.3233C51.7368 10.3367 51.7434 10.35 51.7499 10.3701C51.7631 10.4102 51.7829 10.437 51.8224 10.4437C51.8619 10.4504 51.8882 10.4303 51.908 10.3902V10.3567L51.9211 10.3099V10.2965V10.1093L51.908 9.98222V9.92204C51.908 9.90197 51.908 9.88191 51.908 9.86185C51.908 9.84179 51.9014 9.82172 51.8948 9.80166C51.8685 9.72141 51.8355 9.70135 51.796 9.72141ZM52.1055 8.13646C52.0726 8.13646 52.0594 8.15652 52.0594 8.19665C52.0594 8.23678 52.0726 8.26352 52.1055 8.2769C52.145 8.26352 52.1647 8.23678 52.1647 8.19665C52.1647 8.16321 52.145 8.13646 52.1055 8.13646Z" fill="#F6EDE6"/>
<path d="M34.835 22.5214C34.835 22.8223 34.8021 23.1366 34.7297 23.4509C34.6572 23.7652 34.5321 24.0595 34.3478 24.3203C34.1634 24.5878 33.9264 24.8085 33.6235 24.9958C33.3272 25.183 32.9453 25.29 32.491 25.3301C32.3857 25.3435 32.2803 25.3502 32.1684 25.3569C32.0565 25.3636 31.9511 25.3769 31.8458 25.3836L31.0096 25.4037C30.9832 25.4037 30.9503 25.4104 30.9108 25.4238C30.8713 25.4371 30.8252 25.4438 30.7725 25.4438C30.575 25.4572 30.4367 25.5508 30.3445 25.718C30.2524 25.8919 30.2063 26.0323 30.2063 26.1527V28.2325C30.2063 28.2593 30.1997 28.3128 30.1799 28.3997C30.1602 28.4867 30.1339 28.5468 30.0943 28.587C29.989 28.7207 29.8639 28.7943 29.7256 28.8077C29.5808 28.821 29.4425 28.8277 29.3174 28.8277C29.2121 28.8277 29.1001 28.821 28.9882 28.821C28.8697 28.8143 28.7577 28.7809 28.659 28.714C28.5931 28.6739 28.5405 28.6003 28.4944 28.4867C28.4483 28.373 28.4285 28.2927 28.4285 28.2392V20.1673C28.4285 20.0202 28.4878 19.8865 28.6129 19.7594C28.738 19.6323 28.8763 19.5788 29.0343 19.5922H31.747C31.8655 19.6056 31.9906 19.619 32.1157 19.6323C32.2474 19.6457 32.3593 19.6591 32.4449 19.6725C32.9124 19.7393 33.3009 19.8597 33.6038 20.0403C33.9066 20.2208 34.1502 20.4348 34.3346 20.6957C34.519 20.9565 34.6441 21.2373 34.7231 21.5584C34.7955 21.866 34.835 22.1937 34.835 22.5214ZM32.9387 22.5347C32.9387 22.2539 32.8795 22.0265 32.7544 21.8459C32.6293 21.6654 32.4778 21.5249 32.2935 21.4246C32.1091 21.3243 31.9116 21.2574 31.7009 21.2173C31.4836 21.1772 31.2927 21.1571 31.1281 21.1571C30.8779 21.1571 30.6935 21.1972 30.575 21.2641C30.4499 21.3377 30.3643 21.4313 30.3116 21.5517C30.259 21.672 30.2326 21.8125 30.226 21.9797C30.2194 22.1469 30.2194 22.3207 30.2194 22.508C30.2194 22.7086 30.2194 22.8892 30.226 23.0497C30.2326 23.2102 30.2655 23.3506 30.3248 23.471C30.3841 23.5914 30.4762 23.685 30.5947 23.7519C30.7198 23.8187 30.9042 23.8522 31.1478 23.8522C31.2795 23.8522 31.4244 23.8455 31.5956 23.8254C31.7667 23.8054 31.9248 23.7652 32.0828 23.7051C32.2408 23.6449 32.3857 23.5579 32.5239 23.4442C32.6622 23.3306 32.7676 23.1834 32.8466 22.9962C32.8729 22.9293 32.8927 22.8624 32.9124 22.7889C32.9322 22.7086 32.9387 22.6284 32.9387 22.5347Z" fill="#F6EDE6"/>
<path d="M37.4095 28.2526C37.4095 28.2794 37.4029 28.3329 37.3831 28.4198C37.3634 28.5068 37.337 28.567 37.2975 28.6071C37.1922 28.7408 37.0737 28.8144 36.9354 28.8278C36.7971 28.8412 36.6588 28.8478 36.514 28.8478C36.4086 28.8478 36.2967 28.8412 36.1848 28.8412C36.0663 28.8345 35.9543 28.801 35.8556 28.7341C35.7897 28.694 35.7371 28.6205 35.691 28.5068C35.6449 28.3931 35.6251 28.3128 35.6251 28.2593V20.1473C35.6251 20.1206 35.6317 20.0671 35.6515 19.9868C35.6712 19.9066 35.6975 19.8397 35.7371 19.7862C35.8424 19.6525 35.9675 19.5856 36.1058 19.5789C36.2506 19.5722 36.3823 19.5722 36.514 19.5722C36.6062 19.5722 36.7115 19.5789 36.8366 19.5789C36.9617 19.5856 37.0802 19.619 37.1988 19.6859C37.2646 19.726 37.3173 19.7996 37.3568 19.9066C37.3963 20.0136 37.416 20.0938 37.416 20.1473V28.2526H37.4095Z" fill="#F6EDE6"/>
<path d="M44.4678 20.3011C44.4678 20.5017 44.4414 20.7024 44.3887 20.9164C44.3361 21.1304 44.2373 21.3377 44.099 21.5517C44.02 21.6721 43.8686 21.9061 43.6381 22.2673C43.4077 22.6217 43.1443 23.0363 42.8415 23.4978C42.5386 23.9592 42.2225 24.4407 41.8933 24.9423C41.5707 25.4438 41.281 25.8919 41.0374 26.2865C40.9979 26.3534 40.9649 26.4336 40.932 26.5272C40.8991 26.6209 40.8859 26.7078 40.8859 26.788C40.8859 26.9753 40.9649 27.0957 41.123 27.1625C41.281 27.2294 41.3995 27.2629 41.4917 27.2629H43.7764C43.8028 27.2629 43.8554 27.2695 43.9344 27.2896C44.0134 27.3097 44.0793 27.3364 44.132 27.3765C44.2373 27.4568 44.3032 27.5638 44.3295 27.6909C44.3558 27.8246 44.369 27.9383 44.369 28.0252C44.369 28.0921 44.3624 28.1657 44.3624 28.2459C44.3558 28.3262 44.3229 28.4399 44.2571 28.5803C44.2176 28.6472 44.1451 28.7007 44.0332 28.7475C43.9213 28.7943 43.8423 28.8144 43.7896 28.8144H38.7921C38.7658 28.8144 38.7131 28.8077 38.6341 28.7876C38.5551 28.7676 38.4893 28.7408 38.4366 28.7007C38.3312 28.6204 38.2654 28.5201 38.2391 28.3931C38.2127 28.266 38.1996 28.1456 38.1996 28.0252C38.1996 27.8514 38.2127 27.6708 38.2391 27.4835C38.2654 27.2896 38.3378 27.1024 38.4563 26.9218C38.6934 26.5674 38.9436 26.1795 39.2201 25.7648C39.4901 25.3502 39.7666 24.9289 40.0497 24.4942C40.3263 24.0662 40.6028 23.6449 40.8793 23.2236C41.1493 22.809 41.4061 22.4144 41.6431 22.0466C41.6695 21.9797 41.6958 21.9128 41.7221 21.8393C41.7485 21.7657 41.7616 21.6921 41.7616 21.6119C41.7616 21.5584 41.7485 21.4915 41.7221 21.4113C41.6695 21.331 41.5839 21.2641 41.4653 21.2106C41.3468 21.1571 41.2415 21.1304 41.1559 21.1304H39.2069C39.1806 21.1304 39.1279 21.117 39.0489 21.0903C38.9699 21.0635 38.9041 21.0367 38.8514 21.01C38.7329 20.9164 38.667 20.8027 38.6473 20.6622C38.6275 20.5218 38.6209 20.4148 38.6209 20.3346C38.6209 20.2677 38.6209 20.2008 38.6275 20.1272C38.6341 20.0537 38.667 19.9467 38.7329 19.7996C38.7592 19.7327 38.8316 19.6792 38.9502 19.6324C39.0687 19.5856 39.1609 19.5655 39.2201 19.5655H43.862C43.9147 19.5655 43.9739 19.5789 44.0464 19.6056C44.1188 19.6324 44.1846 19.6591 44.2505 19.6859C44.3427 19.7527 44.4019 19.8464 44.4283 19.9734C44.4546 20.1005 44.4678 20.2142 44.4678 20.3011Z" fill="#F6EDE6"/>
<path d="M51.5327 20.3011C51.5327 20.5017 51.5063 20.7024 51.4537 20.9164C51.401 21.1304 51.3022 21.3377 51.1639 21.5517C51.0849 21.6721 50.9335 21.9061 50.7031 22.2673C50.4726 22.6217 50.2092 23.0363 49.9064 23.4978C49.6035 23.9592 49.2874 24.4407 48.9582 24.9423C48.6356 25.4438 48.3459 25.8919 48.1023 26.2865C48.0628 26.3534 48.0298 26.4336 47.9969 26.5272C47.964 26.6209 47.9508 26.7078 47.9508 26.788C47.9508 26.9753 48.0298 27.0957 48.1879 27.1625C48.3459 27.2294 48.4644 27.2629 48.5566 27.2629H50.8413C50.8677 27.2629 50.9203 27.2695 50.9993 27.2896C51.0784 27.3097 51.1442 27.3364 51.1969 27.3765C51.3022 27.4568 51.3681 27.5638 51.3944 27.6909C51.4207 27.8246 51.4339 27.9383 51.4339 28.0252C51.4339 28.0921 51.4273 28.1657 51.4273 28.2459C51.4207 28.3262 51.3878 28.4399 51.322 28.5803C51.2825 28.6472 51.21 28.7007 51.0981 28.7475C50.9862 28.7943 50.9072 28.8144 50.8545 28.8144H45.8373C45.811 28.8144 45.7583 28.8077 45.6793 28.7876C45.6003 28.7676 45.5344 28.7408 45.4817 28.7007C45.3764 28.6204 45.3105 28.5201 45.2842 28.3931C45.2579 28.266 45.2447 28.1456 45.2447 28.0252C45.2447 27.8514 45.2579 27.6708 45.2842 27.4835C45.3105 27.2896 45.383 27.1024 45.5015 26.9218C45.7385 26.5674 45.9887 26.1795 46.2653 25.7648C46.5352 25.3502 46.8118 24.9289 47.0949 24.4942C47.3714 24.0662 47.648 23.6449 47.9245 23.2236C48.1945 22.809 48.4512 22.4144 48.6883 22.0466C48.7146 21.9797 48.7409 21.9128 48.7673 21.8393C48.7936 21.7657 48.8068 21.6921 48.8068 21.6119C48.8068 21.5584 48.7936 21.4915 48.7673 21.4113C48.7146 21.331 48.629 21.2641 48.5105 21.2106C48.392 21.1571 48.2866 21.1304 48.201 21.1304H46.2521C46.2258 21.1304 46.1731 21.117 46.0941 21.0903C46.0151 21.0635 45.9492 21.0367 45.8965 21.01C45.778 20.9164 45.7122 20.8027 45.6924 20.6622C45.6727 20.5218 45.6661 20.4148 45.6661 20.3346C45.6661 20.2677 45.6661 20.2008 45.6727 20.1272C45.6793 20.0537 45.7122 19.9467 45.778 19.7996C45.8044 19.7327 45.8768 19.6792 45.9953 19.6324C46.1138 19.5856 46.206 19.5655 46.2653 19.5655H50.9269C50.9796 19.5655 51.0388 19.5789 51.1113 19.6056C51.1837 19.6324 51.2495 19.6591 51.3154 19.6859C51.4076 19.7527 51.4668 19.8464 51.4932 19.9734C51.5195 20.1005 51.5327 20.2142 51.5327 20.3011Z" fill="#F6EDE6"/>
<path d="M60 28.3663C60 28.5001 59.9737 28.6004 59.9144 28.6606C59.8552 28.7274 59.7827 28.7742 59.6906 28.801C59.5984 28.8277 59.5062 28.8411 59.4206 28.8411C59.3284 28.8411 59.2428 28.8411 59.1638 28.8411C59.0585 28.8411 58.94 28.8411 58.8017 28.8411C58.6634 28.8411 58.5383 28.8077 58.4198 28.7408C58.3276 28.6873 58.2552 28.6204 58.2025 28.5335C58.1498 28.4466 58.1103 28.3596 58.0774 28.266C58.0445 28.1724 58.0182 28.0787 57.9984 27.9918C57.9786 27.8982 57.9589 27.8179 57.9326 27.751C57.8931 27.6574 57.847 27.5437 57.7943 27.4167C57.7416 27.2829 57.656 27.1759 57.5375 27.1024C57.498 27.0756 57.4256 27.0355 57.3136 26.982C57.2017 26.9285 57.1029 26.9017 57.0108 26.9017H55.2725C55.2462 26.9017 55.2264 26.9084 55.2133 26.9218C55.2001 26.9352 55.1803 26.9419 55.154 26.9419C54.9696 26.9686 54.8314 27.0288 54.726 27.1291C54.6207 27.2294 54.5417 27.3498 54.4824 27.4835C54.4232 27.624 54.3771 27.7644 54.3376 27.9116C54.2981 28.0587 54.252 28.1857 54.1993 28.3061C54.1861 28.3329 54.1598 28.3931 54.1137 28.4867C54.0676 28.5803 53.9952 28.6606 53.8898 28.7274C53.7845 28.7943 53.666 28.8277 53.5277 28.8344C53.3894 28.8411 53.2643 28.8411 53.1458 28.8411C53.08 28.8411 53.001 28.8411 52.9022 28.8411C52.8034 28.8411 52.7112 28.8277 52.6322 28.801C52.5466 28.7742 52.4742 28.7274 52.4084 28.6606C52.3425 28.5937 52.3096 28.4934 52.3096 28.3663C52.3096 28.3262 52.3491 28.1857 52.4281 27.9383C52.5071 27.6909 52.5993 27.41 52.6981 27.0957C52.8034 26.7814 52.9088 26.4604 53.0075 26.146C53.1129 25.8317 53.1985 25.5843 53.2643 25.4104C53.3302 25.2232 53.4026 25.0025 53.4882 24.735C53.5738 24.4742 53.6528 24.22 53.7318 23.9793C53.8108 23.7385 53.903 23.4643 54.0018 23.15C54.1071 22.8357 54.219 22.5013 54.331 22.1603C54.4495 21.8192 54.5614 21.4714 54.6734 21.117C54.7853 20.7693 54.8906 20.4549 54.996 20.1741C55.0223 20.0671 55.0684 19.9667 55.1343 19.8798C55.2659 19.6926 55.4305 19.5989 55.6412 19.5856C55.8519 19.5722 56.0165 19.5655 56.1482 19.5655C56.4577 19.5655 56.6881 19.5922 56.833 19.6457C56.9778 19.6992 57.0898 19.7862 57.1622 19.9066C57.2412 20.0269 57.3071 20.1807 57.3597 20.3814C57.4124 20.582 57.498 20.8294 57.6165 21.1371C57.656 21.2307 57.7153 21.3979 57.7943 21.6453C57.8733 21.8928 57.9655 22.1669 58.0642 22.4679C58.1696 22.7688 58.2749 23.0831 58.3737 23.4108C58.4791 23.7318 58.5778 24.0261 58.6634 24.2936C58.7161 24.4541 58.7885 24.6748 58.8873 24.969C58.986 25.2566 59.098 25.5843 59.2165 25.9387C59.3416 26.2932 59.4667 26.6744 59.5984 27.0689C59.7301 27.4635 59.8552 27.8447 59.9671 28.1991C59.9803 28.2259 59.9868 28.2526 59.9868 28.2861C60 28.3128 60 28.3396 60 28.3663ZM56.9713 24.7216C56.9713 24.6413 56.9515 24.5277 56.912 24.3738C56.8725 24.22 56.8264 24.0662 56.7737 23.899C56.7211 23.7318 56.6684 23.5847 56.6157 23.4443C56.563 23.3038 56.5235 23.2102 56.4972 23.1567C56.3655 22.9962 56.247 22.916 56.1482 22.916C56.056 22.916 55.9705 22.9561 55.8914 23.043C55.8124 23.13 55.7598 23.2035 55.7334 23.2704C55.7203 23.3105 55.6939 23.3908 55.6478 23.5178C55.6017 23.6449 55.5556 23.7786 55.5096 23.9258C55.4635 24.0729 55.424 24.2133 55.3845 24.3605C55.3449 24.5076 55.3252 24.628 55.3252 24.7149C55.3252 24.9824 55.4042 25.1496 55.5688 25.2232C55.7334 25.2967 55.9244 25.3302 56.1416 25.3302C56.326 25.3302 56.5038 25.2967 56.6881 25.2232C56.8857 25.1563 56.9713 24.9891 56.9713 24.7216Z" fill="#F6EDE6"/>
<path d="M55.2067 7.94617L61.3706 2.05377" stroke="#F6EDE6" stroke-linecap="round"/>
<path d="M55.9318 9.97174H61.7332" stroke="#F6EDE6" stroke-linecap="round"/>
<path d="M53.9376 6.84138V0.948975" stroke="#F6EDE6" stroke-linecap="round"/>
<path d="M11.7309 22.9427C11.4609 21.7323 4.61988 18.6092 4.21824 18.2012C4.17215 18.1544 4.17215 18.014 4.23141 17.8067L4.18532 17.7866C4.18532 17.7866 4.42235 13.4531 1.98618 15.1049C-0.449996 16.7567 2.3944 18.8165 2.3944 18.8165C2.3944 18.8165 6.84535 21.2641 11.7638 23.7318C11.777 23.4041 11.7704 23.13 11.7309 22.9427Z" stroke="#F6EDE6" stroke-miterlimit="10" stroke-linecap="round" stroke-linejoin="round"/>
<path d="M13.8049 24.4006C13.7851 24.5076 13.7654 24.6146 13.7522 24.7216C14.4238 25.0493 15.0954 25.3703 15.7538 25.6846C15.8131 24.9089 16.004 24.1197 15.9975 23.9726C15.9777 23.0631 14.009 22.5415 13.8049 24.4006Z" stroke="#F6EDE6" stroke-miterlimit="10" stroke-linecap="round" stroke-linejoin="round"/>
<path d="M25.3405 26.1394C25.2944 27.2896 24.5109 27.6708 23.7142 27.2696C22.8978 26.8549 18.8419 25.2098 18.8419 25.2098C18.8419 25.2098 16.8139 24.3872 16.8139 25.6244C16.8139 25.8317 16.8139 26.0123 16.8139 26.1795C20.3892 27.8246 23.4574 29.015 24.3265 28.7208C26.1767 28.0921 25.6829 26.7479 25.3405 26.1394Z" stroke="#F6EDE6" stroke-miterlimit="10" stroke-linecap="round" stroke-linejoin="round"/>
<path d="M4.38943 17.3519C5.24538 15.2921 8.94573 10.1962 17.4657 9.13959C17.6106 8.44408 17.9991 6.02319 16.6164 6.02319C15.0559 6.02319 5.60093 8.53771 1.65038 15.3724C1.74914 15.2854 1.86766 15.1918 1.99276 15.1049C4.02071 13.7272 4.19848 16.5093 4.19848 17.4723L4.38943 17.3519Z" stroke="#F6EDE6" stroke-miterlimit="10" stroke-linecap="round" stroke-linejoin="round"/>
<path d="M17.6238 9.11951C17.6238 9.11951 25.3405 25.2098 25.3405 26.0323C25.3405 27.2695 24.5306 27.6841 23.7142 27.2695C22.8977 26.8549 18.8419 25.2097 18.8419 25.2097C18.8419 25.2097 16.8139 24.3872 16.8139 25.6244C16.8139 26.8616 16.8139 27.2762 16.4057 27.2762C15.1876 27.2762 16.004 24.2668 15.9975 23.9726C15.9777 23.063 14.009 22.5414 13.8049 24.4006C13.3967 26.4603 14.3316 28.5937 13.1531 28.928C10.4469 29.6837 12.0272 24.2668 11.7309 22.9427C11.4609 21.7322 4.61987 18.6091 4.21823 18.2012C3.81659 17.7933 7.06263 10.3567 17.6238 9.11951Z" stroke="#F6EDE6" stroke-miterlimit="10" stroke-linecap="round" stroke-linejoin="round"/>
<path d="M17.8279 14.2756C18.2164 13.0986 16.6098 10.9719 15.3917 11.3866C14.1736 11.8012 13.3638 13.4463 13.7654 14.2756C14.1736 15.0981 15.7933 15.5128 16.2016 15.5128C16.6098 15.5195 17.4197 15.5195 17.8279 14.2756Z" stroke="#F6EDE6" stroke-miterlimit="10" stroke-linecap="round" stroke-linejoin="round"/>
<path d="M11.7374 17.1646C10.9276 16.75 10.1111 15.9274 9.30127 16.75C8.49141 17.5726 8.89305 18.8098 9.30127 19.2244C9.7095 19.639 11.3292 20.047 12.1457 19.2244C12.9555 18.4018 11.7374 17.1646 11.7374 17.1646Z" stroke="#F6EDE6" stroke-miterlimit="10" stroke-linecap="round" stroke-linejoin="round"/>
<path d="M19.4542 19.639C18.6443 19.639 17.4262 20.0537 17.4262 21.2909C17.4262 22.5281 18.6443 22.9427 19.0525 22.9427C19.4608 22.9427 20.6789 22.1201 20.6789 21.2909C20.6723 20.4683 20.2641 19.639 19.4542 19.639Z" stroke="#F6EDE6" stroke-miterlimit="10" stroke-linecap="round" stroke-linejoin="round"/>
<path d="M19.4542 15.9274C19.046 15.9274 18.2361 16.75 19.4542 17.5793" stroke="#F6EDE6" stroke-miterlimit="10" stroke-linecap="round" stroke-linejoin="round"/>
<path d="M14.9835 17.1646C14.9835 17.1646 16.2016 18.4018 14.5753 18.8164" stroke="#F6EDE6" stroke-miterlimit="10" stroke-linecap="round" stroke-linejoin="round"/>
<path d="M11.7375 13.453C11.7375 13.453 10.1111 12.6304 10.1111 14.2756" stroke="#F6EDE6" stroke-miterlimit="10" stroke-linecap="round" stroke-linejoin="round"/>
<path d="M7.26674 16.342C7.26674 16.342 8.48483 17.1646 6.85852 17.9939" stroke="#F6EDE6" stroke-miterlimit="10" stroke-linecap="round" stroke-linejoin="round"/>
<path d="M22.292 22.9427C22.292 22.9427 21.8838 24.5945 20.2641 24.1799" stroke="#F6EDE6" stroke-miterlimit="10" stroke-linecap="round" stroke-linejoin="round"/>
<path d="M14.1736 7.67499C14.1736 7.67499 10.5194 8.49756 10.1111 9.32681" stroke="#F6EDE6" stroke-miterlimit="10" stroke-linecap="round" stroke-linejoin="round"/>
<path d="M8.89305 10.1561C8.48483 10.1561 8.08319 10.5707 8.08319 10.5707" stroke="#F6EDE6" stroke-miterlimit="10" stroke-linecap="round" stroke-linejoin="round"/>
</svg>
