<svg width="181" height="98" viewBox="0 0 181 98" fill="none" xmlns="http://www.w3.org/2000/svg">
<path d="M105.774 83.44C106.521 83.44 107.182 83.6267 107.758 84C108.345 84.3733 108.809 84.8853 109.15 85.536C109.491 86.176 109.662 86.9227 109.662 87.776C109.662 88.6293 109.491 89.3867 109.15 90.048C108.809 90.6987 108.35 91.2107 107.774 91.584C107.198 91.9573 106.547 92.144 105.822 92.144C105.417 92.144 105.033 92.08 104.67 91.952C104.307 91.824 103.987 91.6587 103.71 91.456C103.433 91.2427 103.203 91.0187 103.022 90.784C102.851 90.5493 102.745 90.3307 102.702 90.128L103.134 89.92V94.384C103.134 94.6187 103.054 94.8107 102.894 94.96C102.745 95.12 102.558 95.2 102.334 95.2C102.099 95.2 101.907 95.12 101.758 94.96C101.609 94.8107 101.534 94.6187 101.534 94.384V84.368C101.534 84.144 101.609 83.952 101.758 83.792C101.907 83.632 102.099 83.552 102.334 83.552C102.558 83.552 102.745 83.632 102.894 83.792C103.054 83.952 103.134 84.144 103.134 84.368V85.472L102.878 85.328C102.91 85.1253 103.011 84.9173 103.182 84.704C103.353 84.48 103.566 84.272 103.822 84.08C104.089 83.888 104.387 83.7333 104.718 83.616C105.059 83.4987 105.411 83.44 105.774 83.44ZM105.598 84.912C105.086 84.912 104.638 85.04 104.254 85.296C103.881 85.5413 103.587 85.8773 103.374 86.304C103.161 86.7307 103.054 87.2213 103.054 87.776C103.054 88.32 103.161 88.816 103.374 89.264C103.587 89.7013 103.881 90.048 104.254 90.304C104.638 90.5493 105.086 90.672 105.598 90.672C106.099 90.672 106.537 90.5493 106.91 90.304C107.283 90.048 107.577 89.7013 107.79 89.264C108.014 88.816 108.126 88.32 108.126 87.776C108.126 87.232 108.014 86.7467 107.79 86.32C107.577 85.8827 107.283 85.5413 106.91 85.296C106.537 85.04 106.099 84.912 105.598 84.912ZM112.976 91.184C112.976 91.4187 112.901 91.616 112.752 91.776C112.602 91.9253 112.41 92 112.176 92C111.952 92 111.76 91.9253 111.6 91.776C111.45 91.616 111.376 91.4187 111.376 91.184V84.336C111.376 84.1013 111.45 83.9093 111.6 83.76C111.76 83.6 111.952 83.52 112.176 83.52C112.41 83.52 112.602 83.6 112.752 83.76C112.901 83.9093 112.976 84.1013 112.976 84.336V91.184ZM112.16 82.464C111.85 82.464 111.626 82.4107 111.488 82.304C111.349 82.1867 111.28 81.9947 111.28 81.728V81.472C111.28 81.2053 111.354 81.0187 111.504 80.912C111.653 80.8053 111.877 80.752 112.176 80.752C112.496 80.752 112.725 80.8107 112.864 80.928C113.002 81.0347 113.072 81.216 113.072 81.472V81.728C113.072 82.0053 112.997 82.1973 112.848 82.304C112.709 82.4107 112.48 82.464 112.16 82.464ZM120.472 90.528C120.685 90.528 120.861 90.5973 121 90.736C121.149 90.8747 121.224 91.0507 121.224 91.264C121.224 91.4667 121.149 91.6427 121 91.792C120.861 91.9307 120.685 92 120.472 92H115.304C115.08 92 114.898 91.92 114.76 91.76C114.621 91.5893 114.557 91.424 114.568 91.264C114.578 91.136 114.594 91.024 114.616 90.928C114.648 90.8213 114.717 90.704 114.824 90.576L119.096 84.912V85.104H115.528C115.314 85.104 115.133 85.0347 114.984 84.896C114.845 84.7467 114.776 84.5707 114.776 84.368C114.776 84.1547 114.845 83.9787 114.984 83.84C115.133 83.7013 115.314 83.632 115.528 83.632H120.456C120.658 83.632 120.829 83.712 120.968 83.872C121.117 84.0213 121.181 84.208 121.16 84.432C121.16 84.528 121.144 84.624 121.112 84.72C121.09 84.8053 121.032 84.9067 120.936 85.024L116.728 90.624L116.664 90.528H120.472ZM128.191 90.528C128.404 90.528 128.58 90.5973 128.719 90.736C128.868 90.8747 128.943 91.0507 128.943 91.264C128.943 91.4667 128.868 91.6427 128.719 91.792C128.58 91.9307 128.404 92 128.191 92H123.023C122.799 92 122.617 91.92 122.479 91.76C122.34 91.5893 122.276 91.424 122.287 91.264C122.297 91.136 122.313 91.024 122.335 90.928C122.367 90.8213 122.436 90.704 122.543 90.576L126.815 84.912V85.104H123.247C123.033 85.104 122.852 85.0347 122.703 84.896C122.564 84.7467 122.495 84.5707 122.495 84.368C122.495 84.1547 122.564 83.9787 122.703 83.84C122.852 83.7013 123.033 83.632 123.247 83.632H128.175C128.377 83.632 128.548 83.712 128.687 83.872C128.836 84.0213 128.9 84.208 128.879 84.432C128.879 84.528 128.863 84.624 128.831 84.72C128.809 84.8053 128.751 84.9067 128.655 85.024L124.447 90.624L124.383 90.528H128.191ZM137.461 83.456C137.696 83.456 137.888 83.536 138.037 83.696C138.187 83.8453 138.261 84.0373 138.261 84.272V91.184C138.261 91.4187 138.187 91.616 138.037 91.776C137.888 91.9253 137.696 92 137.461 92C137.237 92 137.045 91.9253 136.885 91.776C136.736 91.616 136.661 91.4187 136.661 91.184V90.032L136.997 90.08C136.997 90.272 136.917 90.4853 136.757 90.72C136.608 90.9547 136.4 91.184 136.133 91.408C135.867 91.6213 135.552 91.8027 135.189 91.952C134.827 92.0907 134.437 92.16 134.021 92.16C133.285 92.16 132.624 91.9733 132.037 91.6C131.451 91.216 130.987 90.6933 130.645 90.032C130.304 89.3707 130.133 88.6187 130.133 87.776C130.133 86.912 130.304 86.1547 130.645 85.504C130.987 84.8427 131.445 84.3253 132.021 83.952C132.608 83.5787 133.259 83.392 133.973 83.392C134.432 83.392 134.853 83.4667 135.237 83.616C135.632 83.7653 135.973 83.9573 136.261 84.192C136.549 84.4267 136.768 84.6773 136.917 84.944C137.077 85.2 137.157 85.4453 137.157 85.68L136.661 85.728V84.272C136.661 84.048 136.736 83.856 136.885 83.696C137.045 83.536 137.237 83.456 137.461 83.456ZM134.197 90.688C134.699 90.688 135.141 90.56 135.525 90.304C135.909 90.048 136.208 89.7013 136.421 89.264C136.635 88.816 136.741 88.32 136.741 87.776C136.741 87.2213 136.635 86.7253 136.421 86.288C136.208 85.8507 135.909 85.504 135.525 85.248C135.141 84.992 134.699 84.864 134.197 84.864C133.707 84.864 133.269 84.992 132.885 85.248C132.512 85.504 132.213 85.8507 131.989 86.288C131.776 86.7253 131.669 87.2213 131.669 87.776C131.669 88.32 131.776 88.816 131.989 89.264C132.213 89.7013 132.512 90.048 132.885 90.304C133.269 90.56 133.707 90.688 134.197 90.688ZM142.119 86.832C142.119 86.608 142.193 86.416 142.343 86.256C142.503 86.096 142.695 86.016 142.919 86.016C143.377 86.0053 143.788 85.92 144.151 85.76C144.513 85.6 144.801 85.36 145.015 85.04C145.228 84.72 145.335 84.32 145.335 83.84C145.335 83.424 145.239 83.0667 145.047 82.768C144.865 82.4587 144.615 82.2187 144.295 82.048C143.975 81.8667 143.612 81.776 143.207 81.776C142.855 81.776 142.529 81.8453 142.231 81.984C141.932 82.1227 141.665 82.304 141.431 82.528C141.292 82.656 141.121 82.752 140.919 82.816C140.727 82.8693 140.529 82.8213 140.327 82.672C140.113 82.5227 139.996 82.336 139.975 82.112C139.953 81.888 140.033 81.68 140.215 81.488C140.577 81.0827 141.02 80.7627 141.543 80.528C142.065 80.2933 142.62 80.176 143.207 80.176C143.9 80.176 144.529 80.336 145.095 80.656C145.66 80.976 146.108 81.408 146.439 81.952C146.769 82.496 146.935 83.1253 146.935 83.84C146.935 84.3307 146.855 84.7787 146.695 85.184C146.535 85.5893 146.305 85.9413 146.007 86.24C145.708 86.5387 145.361 86.7787 144.967 86.96C144.583 87.1413 144.161 87.2587 143.703 87.312C143.681 87.3227 143.671 87.328 143.671 87.328C143.681 87.328 143.697 87.328 143.719 87.328V88.288C143.719 88.512 143.639 88.704 143.479 88.864C143.329 89.0133 143.143 89.088 142.919 89.088C142.684 89.088 142.492 89.0133 142.343 88.864C142.193 88.704 142.119 88.512 142.119 88.288V86.832ZM142.871 92C142.604 92 142.396 91.9253 142.247 91.776C142.108 91.6267 142.039 91.4187 142.039 91.152V90.864C142.039 90.5867 142.108 90.3787 142.247 90.24C142.396 90.0907 142.604 90.016 142.871 90.016H143.031C143.308 90.016 143.516 90.0907 143.655 90.24C143.793 90.3787 143.863 90.5867 143.863 90.864V91.152C143.863 91.4187 143.793 91.6267 143.655 91.776C143.516 91.9253 143.308 92 143.031 92H142.871Z" fill="#F6EDE6"/>
<path d="M102.621 48.6211H102.949C103.652 48.6211 104.27 48.7461 104.801 48.9961C105.176 49.168 105.363 49.4648 105.363 49.8867C105.363 50.3008 105.258 50.6484 105.047 50.9297C104.844 51.2031 104.566 51.3398 104.215 51.3398C103.871 51.3398 103.465 51.2656 102.996 51.1172C102.527 50.9609 102.27 50.8828 102.223 50.8828C101.871 50.8828 101.574 51.0586 101.332 51.4102C101.098 51.7539 100.98 52.207 100.98 52.7695C100.98 53.332 101.07 53.7617 101.25 54.0586C101.281 54.1133 101.676 54.3633 102.434 54.8086C102.965 55.1211 103.23 55.4688 103.23 55.8516C103.23 56.125 102.906 56.3906 102.258 56.6484C101.617 56.8984 101.254 57.1211 101.168 57.3164C100.98 57.7539 100.887 58.7578 100.887 60.3281C100.887 60.75 100.883 61.0625 100.875 61.2656L100.863 61.5703L100.875 62.1797C100.875 62.9375 100.965 63.5 101.145 63.8672C101.184 63.9531 101.43 64.2109 101.883 64.6406C102.344 65.0625 102.574 65.4258 102.574 65.7305C102.574 66.0273 102.363 66.2188 101.941 66.3047C101.52 66.3906 100.914 66.4336 100.125 66.4336H99.4805C98.3789 66.4336 97.4844 66.3867 96.7969 66.293C96.4531 66.2461 96.2812 66.0547 96.2812 65.7188C96.2812 65.5703 96.4531 65.3047 96.7969 64.9219C97.1484 64.5391 97.3867 64.0547 97.5117 63.4688C97.6367 62.875 97.6992 61.7852 97.6992 60.1992C97.6992 58.6055 97.6445 57.6523 97.5352 57.3398C97.4258 57.0273 97.1992 56.7539 96.8555 56.5195C96.5117 56.2852 96.3398 56.0391 96.3398 55.7812C96.3398 55.6875 96.5195 55.3672 96.8789 54.8203C97.2461 54.2656 97.4766 53.7734 97.5703 53.3438C98.0547 51.1719 99.1055 49.7266 100.723 49.0078C101.309 48.75 101.941 48.6211 102.621 48.6211ZM110.965 55.7695C111.871 55.1445 112.645 54.832 113.285 54.832C113.926 54.832 114.359 54.9688 114.586 55.2422C114.82 55.5156 114.938 55.8438 114.938 56.2266C114.938 56.6094 114.832 56.9531 114.621 57.2578C114.418 57.5547 114.184 57.7031 113.918 57.7031C113.66 57.7031 113.301 57.6016 112.84 57.3984C112.379 57.1953 112.023 57.0938 111.773 57.0938C111.523 57.0938 111.242 57.2266 110.93 57.4922C110.617 57.7578 110.398 58.1367 110.273 58.6289C110.156 59.1211 110.098 59.8945 110.098 60.9492C110.098 61.9961 110.172 62.6758 110.32 62.9883C110.469 63.293 110.773 63.6953 111.234 64.1953C111.695 64.6953 111.926 65.1055 111.926 65.4258C111.926 65.8008 111.02 65.9883 109.207 65.9883H108.199L107.953 65.9766C107.789 65.9688 107.621 65.9648 107.449 65.9648L107.203 65.9531C107.039 65.9453 106.867 65.9414 106.688 65.9414C105.867 65.9414 105.457 65.7656 105.457 65.4141C105.457 65.0625 105.66 64.707 106.066 64.3477C106.48 63.9883 106.73 63.6641 106.816 63.375C106.91 63.0859 106.957 62.0938 106.957 60.3984C106.957 58.7031 106.902 57.6875 106.793 57.3516C106.691 57.0156 106.438 56.7305 106.031 56.4961C105.633 56.2539 105.434 56.0039 105.434 55.7461C105.434 55.3867 105.703 55.1328 106.242 54.9844C107.055 54.7656 107.789 54.6562 108.445 54.6562C109.102 54.6562 109.543 54.7305 109.77 54.8789C109.863 54.9414 109.969 55.1406 110.086 55.4766C110.211 55.8125 110.355 55.9805 110.52 55.9805C110.59 55.9805 110.738 55.9102 110.965 55.7695ZM121.957 56.0039H121.617C121.125 56.0039 120.652 56.2617 120.199 56.7773C119.754 57.2852 119.531 57.8945 119.531 58.6055V58.793C119.531 59.082 119.691 59.2266 120.012 59.2266L120.129 59.25H120.961L121.02 59.2383L122.977 59.1211C123.094 59.0977 123.172 59.0859 123.211 59.0859C123.609 59.0859 123.809 58.8789 123.809 58.4648V58.0781C123.809 57.5547 123.621 57.0781 123.246 56.6484C122.871 56.2188 122.441 56.0039 121.957 56.0039ZM119.672 61.582C119.672 62.3633 120.039 63.0391 120.773 63.6094C121.32 64.0391 122.016 64.2539 122.859 64.2539C123.242 64.2539 123.809 64.1445 124.559 63.9258C125.316 63.707 125.754 63.5977 125.871 63.5977C126.223 63.5977 126.398 63.7891 126.398 64.1719C126.398 64.625 125.93 65.0859 124.992 65.5547C124.062 66.0156 123.098 66.2461 122.098 66.2461H121.582C121.566 66.2461 121.547 66.2461 121.523 66.2461C120.891 66.2461 120.246 66.1172 119.59 65.8594C118.293 65.3594 117.371 64.4844 116.824 63.2344C116.449 62.375 116.262 61.5586 116.262 60.7852V60.2461C116.262 59.457 116.398 58.6953 116.672 57.9609C117.188 56.5781 118.098 55.582 119.402 54.9727C120.184 54.6133 121.004 54.4336 121.863 54.4336H122.133C123.406 54.4336 124.48 54.8281 125.355 55.6172C125.816 56.0391 126.168 56.5469 126.41 57.1406C126.66 57.7344 126.785 58.3398 126.785 58.957C126.785 59.5664 126.484 59.9688 125.883 60.1641C125.039 60.4375 123.477 60.5742 121.195 60.5742C120.586 60.5742 120.18 60.6523 119.977 60.8086C119.773 60.957 119.672 61.2148 119.672 61.582ZM136.5 54.9609C136.852 55.1641 137.027 55.5938 137.027 56.25C137.027 56.9062 136.98 57.3398 136.887 57.5508C136.793 57.7617 136.609 57.8672 136.336 57.8672C135.898 57.8672 135.426 57.5508 134.918 56.918C134.418 56.2852 133.785 55.9688 133.02 55.9688C132.582 55.9688 132.234 56.082 131.977 56.3086C131.719 56.5352 131.59 56.7852 131.59 57.0586C131.59 57.5273 131.816 57.918 132.27 58.2305C132.488 58.3789 133.188 58.7031 134.367 59.2031C135.555 59.6953 136.402 60.207 136.91 60.7383C137.426 61.2617 137.684 61.9766 137.684 62.8828C137.684 63.7891 137.297 64.5781 136.523 65.25C135.75 65.9219 134.758 66.2578 133.547 66.2578H132.926C131.41 66.2578 130.273 66.0781 129.516 65.7188C128.984 65.4688 128.719 64.875 128.719 63.9375C128.719 63 128.895 62.5312 129.246 62.5312C129.691 62.5312 130.242 62.8945 130.898 63.6211C131.562 64.3477 132.281 64.7109 133.055 64.7109C133.523 64.7109 133.918 64.6133 134.238 64.418C134.566 64.2148 134.73 63.9023 134.73 63.4805C134.73 63.0508 134.504 62.668 134.051 62.332C133.809 62.1523 133.152 61.8359 132.082 61.3828C131.02 60.9219 130.262 60.4766 129.809 60.0469C129.129 59.4062 128.789 58.6211 128.789 57.6914C128.789 56.7539 129.188 55.9805 129.984 55.3711C130.781 54.7539 131.711 54.4453 132.773 54.4453H133.09C134.762 54.4453 135.898 54.6172 136.5 54.9609ZM152.695 65.25C152.695 65.6172 152.434 65.8594 151.91 65.9766C151.387 66.0859 150.641 66.1406 149.672 66.1406C148.703 66.1406 148.074 66.0781 147.785 65.9531C147.496 65.8281 147.352 65.6172 147.352 65.3203C147.352 65.1953 147.453 64.9414 147.656 64.5586C147.859 64.1758 148 63.8555 148.078 63.5977C148.156 63.332 148.195 62.3828 148.195 60.75C148.195 59.1172 148.059 58.0156 147.785 57.4453C147.512 56.8672 146.992 56.5781 146.227 56.5781C145.469 56.5781 144.887 56.8359 144.48 57.3516C144.082 57.8594 143.883 58.7891 143.883 60.1406C143.883 60.5859 143.938 61.2734 144.047 62.2031C144.156 63.1328 144.312 63.8398 144.516 64.3242C144.719 64.8086 144.82 65.0742 144.82 65.1211C144.82 65.4727 144.609 65.6953 144.188 65.7891C143.57 65.9219 142.637 65.9883 141.387 65.9883C140.145 65.9883 139.523 65.7969 139.523 65.4141C139.523 65.1406 139.703 64.75 140.062 64.2422C140.43 63.7344 140.637 63.293 140.684 62.918C140.738 62.543 140.766 60.668 140.766 57.293C140.766 53.918 140.711 52.0234 140.602 51.6094C140.5 51.1953 140.332 50.8828 140.098 50.6719C139.543 50.1719 139.266 49.8906 139.266 49.8281C139.266 49.5078 139.434 49.2773 139.77 49.1367C140.488 48.832 141.441 48.6797 142.629 48.6797C143.199 48.6797 143.566 48.8867 143.73 49.3008C143.832 49.5586 143.883 50.5625 143.883 52.3125C143.883 54.0547 143.898 54.9805 143.93 55.0898C144.008 55.3633 144.168 55.5 144.41 55.5C144.512 55.5 144.734 55.4219 145.078 55.2656C146.031 54.8281 146.898 54.6094 147.68 54.6094C149.094 54.6094 150.094 55.168 150.68 56.2852C151.102 57.0898 151.312 58.4648 151.312 60.4102C151.312 62.3555 151.367 63.457 151.477 63.7148C151.586 63.9727 151.816 64.2695 152.168 64.6055C152.52 64.9414 152.695 65.1562 152.695 65.25ZM154.184 49.7461C154.184 49.4648 154.387 49.2617 154.793 49.1367C155.895 48.8008 156.949 48.6328 157.957 48.6328C158.551 48.6328 158.879 48.8906 158.941 49.4062C158.957 49.5312 158.965 51.625 158.965 55.6875C158.965 59.75 159.031 62.1523 159.164 62.8945C159.305 63.6289 159.492 64.1289 159.727 64.3945C160.32 65.0664 160.617 65.418 160.617 65.4492C160.617 65.8242 159.57 66.0117 157.477 66.0117H157.242L156.996 66C155.746 66 154.996 65.9688 154.746 65.9062C154.504 65.8438 154.383 65.6992 154.383 65.4727C154.383 65.2383 154.574 64.8867 154.957 64.418C155.34 63.9414 155.582 63.4414 155.684 62.918C155.785 62.3867 155.836 60.4336 155.836 57.0586C155.836 53.6836 155.781 51.8125 155.672 51.4453C155.562 51.0703 155.285 50.7422 154.84 50.4609C154.402 50.1719 154.184 49.9336 154.184 49.7461ZM172.734 54.6797C173.797 54.6797 174.328 54.957 174.328 55.5117C174.328 55.7148 174.148 56.0117 173.789 56.4023C173.438 56.7852 173.148 57.2109 172.922 57.6797C172.703 58.1406 171.895 60.082 170.496 63.5039C169.105 66.918 168.219 68.9375 167.836 69.5625C167.117 70.7188 166.148 71.2969 164.93 71.2969C164.469 71.2969 164.027 71.1758 163.605 70.9336C163.184 70.6992 162.973 70.4023 162.973 70.043C162.973 69.6836 163.105 69.3828 163.371 69.1406C163.645 68.9062 164.004 68.7891 164.449 68.7891C165.176 68.7891 165.77 68.5391 166.23 68.0391C166.691 67.5469 166.922 67.0234 166.922 66.4688C166.922 65.9141 166.785 65.3242 166.512 64.6992C164.598 60.3398 163.578 58.0352 163.453 57.7852C163.328 57.5352 163.031 57.1523 162.562 56.6367C162.102 56.1211 161.871 55.668 161.871 55.2773C161.871 54.8867 162.961 54.6914 165.141 54.6914C165.844 54.6914 166.328 54.7344 166.594 54.8203C166.867 54.8984 167.004 55.1289 167.004 55.5117C167.004 55.6523 166.949 55.8359 166.84 56.0625C166.738 56.2812 166.688 56.5 166.688 56.7188C166.688 56.9297 166.879 57.6523 167.262 58.8867C167.645 60.1211 167.977 61.0078 168.258 61.5469C168.539 62.0859 168.715 62.3555 168.785 62.3555C169.035 62.3555 169.551 61.2344 170.332 58.9922C170.559 58.3438 170.672 57.5781 170.672 56.6953C170.672 56.4922 170.605 56.2773 170.473 56.0508C170.348 55.8242 170.285 55.625 170.285 55.4531C170.285 55.2734 170.375 55.1016 170.555 54.9375C170.734 54.7656 171.34 54.6797 172.371 54.6797H172.734Z" fill="#A2C573"/>
<path d="M9.52144 28.44C9.7561 28.5573 9.88944 28.7387 9.92144 28.984C9.9641 29.2293 9.90544 29.4533 9.74544 29.656C9.6281 29.816 9.47344 29.9067 9.28144 29.928C9.1001 29.9493 8.91877 29.912 8.73744 29.816C8.4281 29.656 8.10277 29.528 7.76144 29.432C7.4201 29.336 7.05744 29.288 6.67344 29.288C6.06544 29.288 5.5161 29.3893 5.02544 29.592C4.54544 29.784 4.12944 30.0667 3.77744 30.44C3.42544 30.8027 3.15344 31.2347 2.96144 31.736C2.7801 32.2373 2.68944 32.792 2.68944 33.4C2.68944 34.072 2.79077 34.6693 2.99344 35.192C3.1961 35.704 3.47344 36.1413 3.82544 36.504C4.1881 36.856 4.60944 37.1227 5.08944 37.304C5.5801 37.4747 6.1081 37.56 6.67344 37.56C7.0361 37.56 7.3881 37.5173 7.72944 37.432C8.08144 37.3467 8.4121 37.2187 8.72144 37.048C8.91344 36.952 9.1001 36.92 9.28144 36.952C9.47344 36.9733 9.6281 37.064 9.74544 37.224C9.92677 37.448 9.99077 37.6773 9.93744 37.912C9.89477 38.136 9.76144 38.3067 9.53744 38.424C9.27077 38.5733 8.97744 38.7013 8.65744 38.808C8.33744 38.9147 8.0121 39 7.68144 39.064C7.35077 39.128 7.01477 39.16 6.67344 39.16C5.90544 39.16 5.1801 39.032 4.49744 38.776C3.81477 38.52 3.20677 38.1467 2.67344 37.656C2.1401 37.1653 1.71877 36.5627 1.40944 35.848C1.11077 35.1333 0.961438 34.3173 0.961438 33.4C0.961438 32.5787 1.1001 31.8213 1.37744 31.128C1.66544 30.424 2.06544 29.8213 2.57744 29.32C3.1001 28.808 3.7081 28.4133 4.40144 28.136C5.09477 27.848 5.8521 27.704 6.67344 27.704C7.18544 27.704 7.68144 27.768 8.16144 27.896C8.6521 28.024 9.10544 28.2053 9.52144 28.44ZM12.3653 39C12.1306 39 11.9386 38.9253 11.7893 38.776C11.64 38.616 11.5653 38.4187 11.5653 38.184V31.4C11.5653 31.1653 11.64 30.9733 11.7893 30.824C11.9386 30.664 12.1306 30.584 12.3653 30.584C12.5893 30.584 12.776 30.664 12.9253 30.824C13.0853 30.9733 13.1653 31.1653 13.1653 31.4V33.192L13.0053 32.504C13.0906 32.2053 13.2186 31.928 13.3893 31.672C13.5706 31.416 13.784 31.192 14.0293 31C14.2746 30.808 14.5466 30.6587 14.8453 30.552C15.1546 30.4453 15.4746 30.392 15.8053 30.392C16.0826 30.392 16.3226 30.4667 16.5253 30.616C16.728 30.7653 16.8293 30.952 16.8293 31.176C16.8293 31.464 16.7546 31.6773 16.6053 31.816C16.456 31.944 16.2906 32.008 16.1093 32.008C15.9493 32.008 15.7946 31.976 15.6453 31.912C15.496 31.8373 15.32 31.8 15.1173 31.8C14.8933 31.8 14.664 31.8587 14.4293 31.976C14.1946 32.0933 13.9813 32.2693 13.7893 32.504C13.5973 32.728 13.4426 32.9947 13.3253 33.304C13.2186 33.6133 13.1653 33.96 13.1653 34.344V38.184C13.1653 38.4187 13.0853 38.616 12.9253 38.776C12.776 38.9253 12.5893 39 12.3653 39ZM24.9613 30.456C25.196 30.456 25.388 30.536 25.5373 30.696C25.6866 30.8453 25.7613 31.0373 25.7613 31.272V38.184C25.7613 38.4187 25.6866 38.616 25.5373 38.776C25.388 38.9253 25.196 39 24.9613 39C24.7373 39 24.5453 38.9253 24.3853 38.776C24.236 38.616 24.1613 38.4187 24.1613 38.184V37.032L24.4973 37.08C24.4973 37.272 24.4173 37.4853 24.2573 37.72C24.108 37.9547 23.9 38.184 23.6333 38.408C23.3666 38.6213 23.052 38.8027 22.6893 38.952C22.3266 39.0907 21.9373 39.16 21.5213 39.16C20.7853 39.16 20.124 38.9733 19.5373 38.6C18.9506 38.216 18.4866 37.6933 18.1453 37.032C17.804 36.3707 17.6333 35.6187 17.6333 34.776C17.6333 33.912 17.804 33.1547 18.1453 32.504C18.4866 31.8427 18.9453 31.3253 19.5213 30.952C20.108 30.5787 20.7586 30.392 21.4733 30.392C21.932 30.392 22.3533 30.4667 22.7373 30.616C23.132 30.7653 23.4733 30.9573 23.7613 31.192C24.0493 31.4267 24.268 31.6773 24.4173 31.944C24.5773 32.2 24.6573 32.4453 24.6573 32.68L24.1613 32.728V31.272C24.1613 31.048 24.236 30.856 24.3853 30.696C24.5453 30.536 24.7373 30.456 24.9613 30.456ZM21.6973 37.688C22.1986 37.688 22.6413 37.56 23.0253 37.304C23.4093 37.048 23.708 36.7013 23.9213 36.264C24.1346 35.816 24.2413 35.32 24.2413 34.776C24.2413 34.2213 24.1346 33.7253 23.9213 33.288C23.708 32.8507 23.4093 32.504 23.0253 32.248C22.6413 31.992 22.1986 31.864 21.6973 31.864C21.2066 31.864 20.7693 31.992 20.3853 32.248C20.012 32.504 19.7133 32.8507 19.4893 33.288C19.276 33.7253 19.1693 34.2213 19.1693 34.776C19.1693 35.32 19.276 35.816 19.4893 36.264C19.7133 36.7013 20.012 37.048 20.3853 37.304C20.7693 37.56 21.2066 37.688 21.6973 37.688ZM28.0073 30.504C28.1673 30.504 28.3166 30.5467 28.4553 30.632C28.6046 30.7173 28.7113 30.8453 28.7753 31.016L31.2873 36.824L30.9833 36.968L33.5273 31.032C33.6766 30.68 33.9166 30.5093 34.2473 30.52C34.4606 30.52 34.6366 30.5893 34.7753 30.728C34.9246 30.856 34.9993 31.0267 34.9993 31.24C34.9993 31.304 34.9886 31.3733 34.9673 31.448C34.946 31.512 34.9193 31.576 34.8873 31.64L31.8473 38.488C31.7086 38.808 31.4793 38.9787 31.1593 39C30.9993 39.0213 30.8393 38.9893 30.6793 38.904C30.53 38.808 30.4126 38.6693 30.3273 38.488L27.3033 31.64C27.282 31.5973 27.2606 31.544 27.2393 31.48C27.218 31.4053 27.2073 31.32 27.2073 31.224C27.2073 31.064 27.2766 30.904 27.4153 30.744C27.5646 30.584 27.762 30.504 28.0073 30.504ZM38.1318 38.184C38.1318 38.4187 38.0571 38.616 37.9078 38.776C37.7585 38.9253 37.5665 39 37.3318 39C37.1078 39 36.9158 38.9253 36.7558 38.776C36.6065 38.616 36.5318 38.4187 36.5318 38.184V31.336C36.5318 31.1013 36.6065 30.9093 36.7558 30.76C36.9158 30.6 37.1078 30.52 37.3318 30.52C37.5665 30.52 37.7585 30.6 37.9078 30.76C38.0571 30.9093 38.1318 31.1013 38.1318 31.336V38.184ZM37.3158 29.464C37.0065 29.464 36.7825 29.4107 36.6438 29.304C36.5051 29.1867 36.4358 28.9947 36.4358 28.728V28.472C36.4358 28.2053 36.5105 28.0187 36.6598 27.912C36.8091 27.8053 37.0331 27.752 37.3318 27.752C37.6518 27.752 37.8811 27.8107 38.0198 27.928C38.1585 28.0347 38.2278 28.216 38.2278 28.472V28.728C38.2278 29.0053 38.1531 29.1973 38.0038 29.304C37.8651 29.4107 37.6358 29.464 37.3158 29.464ZM44.6201 30.392C45.3774 30.392 45.9641 30.552 46.3801 30.872C46.7961 31.1813 47.0841 31.6027 47.2441 32.136C47.4147 32.6587 47.5001 33.2453 47.5001 33.896V38.184C47.5001 38.4187 47.4201 38.616 47.2601 38.776C47.1107 38.9253 46.9241 39 46.7001 39C46.4654 39 46.2734 38.9253 46.1241 38.776C45.9747 38.616 45.9001 38.4187 45.9001 38.184V33.912C45.9001 33.528 45.8467 33.1867 45.7401 32.888C45.6334 32.5787 45.4467 32.3333 45.1801 32.152C44.9241 31.96 44.5614 31.864 44.0921 31.864C43.6547 31.864 43.2707 31.96 42.9401 32.152C42.6094 32.3333 42.3481 32.5787 42.1561 32.888C41.9747 33.1867 41.8841 33.528 41.8841 33.912V38.184C41.8841 38.4187 41.8041 38.616 41.6441 38.776C41.4947 38.9253 41.3081 39 41.0841 39C40.8494 39 40.6574 38.9253 40.5081 38.776C40.3587 38.616 40.2841 38.4187 40.2841 38.184V31.4C40.2841 31.1653 40.3587 30.9733 40.5081 30.824C40.6574 30.664 40.8494 30.584 41.0841 30.584C41.3081 30.584 41.4947 30.664 41.6441 30.824C41.8041 30.9733 41.8841 31.1653 41.8841 31.4V32.296L41.5961 32.456C41.6707 32.2213 41.7987 31.9867 41.9801 31.752C42.1721 31.5067 42.4014 31.2827 42.6681 31.08C42.9347 30.8667 43.2334 30.7013 43.5641 30.584C43.8947 30.456 44.2467 30.392 44.6201 30.392ZM53.2256 30.392C53.6842 30.392 54.1056 30.4667 54.4896 30.616C54.8736 30.7653 55.2042 30.9573 55.4816 31.192C55.7696 31.416 55.9936 31.6507 56.1536 31.896C56.3136 32.1413 56.3936 32.3547 56.3936 32.536L56.0256 32.552V31.272C56.0256 31.048 56.1002 30.856 56.2496 30.696C56.3989 30.536 56.5909 30.456 56.8256 30.456C57.0602 30.456 57.2522 30.536 57.4016 30.696C57.5509 30.8453 57.6256 31.0373 57.6256 31.272V38.328C57.6256 39.2347 57.4336 39.9707 57.0496 40.536C56.6656 41.112 56.1536 41.5333 55.5136 41.8C54.8842 42.0667 54.1909 42.2 53.4336 42.2C53.1669 42.2 52.8522 42.1627 52.4896 42.088C52.1269 42.024 51.7909 41.944 51.4816 41.848C51.1829 41.752 50.9749 41.656 50.8576 41.56C50.6122 41.432 50.4469 41.2827 50.3616 41.112C50.2869 40.9413 50.2869 40.7707 50.3616 40.6C50.4682 40.3653 50.6122 40.2213 50.7936 40.168C50.9749 40.1147 51.1829 40.1307 51.4176 40.216C51.5242 40.248 51.6896 40.3067 51.9136 40.392C52.1376 40.4773 52.3882 40.552 52.6656 40.616C52.9429 40.6907 53.2042 40.728 53.4496 40.728C54.3029 40.728 54.9429 40.5307 55.3696 40.136C55.8069 39.7413 56.0256 39.2027 56.0256 38.52V37.08L56.2016 37.192C56.1696 37.416 56.0682 37.6453 55.8976 37.88C55.7376 38.104 55.5242 38.312 55.2576 38.504C54.9909 38.696 54.6816 38.856 54.3296 38.984C53.9882 39.1013 53.6362 39.16 53.2736 39.16C52.5162 39.16 51.8389 38.9733 51.2416 38.6C50.6442 38.216 50.1696 37.6987 49.8176 37.048C49.4656 36.3867 49.2896 35.6293 49.2896 34.776C49.2896 33.9227 49.4656 33.1707 49.8176 32.52C50.1696 31.8587 50.6389 31.3413 51.2256 30.968C51.8229 30.584 52.4896 30.392 53.2256 30.392ZM53.4656 31.864C52.9429 31.864 52.4842 31.992 52.0896 32.248C51.6949 32.504 51.3856 32.8507 51.1616 33.288C50.9376 33.7253 50.8256 34.2213 50.8256 34.776C50.8256 35.3307 50.9376 35.8267 51.1616 36.264C51.3856 36.7013 51.6949 37.048 52.0896 37.304C52.4842 37.56 52.9429 37.688 53.4656 37.688C53.9882 37.688 54.4469 37.5653 54.8416 37.32C55.2362 37.064 55.5456 36.7173 55.7696 36.28C55.9936 35.832 56.1056 35.3307 56.1056 34.776C56.1056 34.2213 55.9936 33.7253 55.7696 33.288C55.5456 32.84 55.2362 32.4933 54.8416 32.248C54.4469 31.992 53.9882 31.864 53.4656 31.864Z" fill="#F6EDE6"/>
<path d="M82.1707 35.328C82.5227 35.024 82.8307 34.9 83.0947 34.956C83.3587 35.012 83.4907 35.264 83.4907 35.712C83.5067 35.856 83.4787 36 83.4067 36.144C83.3347 36.288 83.2587 36.412 83.1787 36.516C83.0987 36.62 82.9827 36.74 82.8307 36.876C82.6787 37.012 82.5547 37.112 82.4587 37.176C82.3627 37.24 82.2227 37.332 82.0387 37.452C81.8547 37.572 81.7467 37.648 81.7147 37.68C81.3307 37.936 80.9387 38.144 80.5387 38.304C80.4747 38.336 80.3627 38.4 80.2027 38.496C80.0427 38.592 79.9227 38.656 79.8427 38.688C79.3147 38.896 78.9227 39.016 78.6667 39.048C77.3067 39.224 76.3787 39.256 75.8827 39.144C75.3867 39.032 74.8267 38.696 74.2027 38.136C73.8187 37.752 73.5467 37.4 73.3867 37.08C73.2267 36.76 73.0987 36.328 73.0027 35.784C72.8107 34.904 72.6187 34.456 72.4267 34.44C72.2827 34.44 72.1147 34.6 71.9227 34.92C71.6667 35.384 71.2107 35.976 70.5547 36.696C69.8987 37.416 69.3627 37.92 68.9467 38.208C68.6587 38.4 68.3347 38.556 67.9747 38.676C67.6147 38.796 67.2267 38.88 66.8107 38.928C66.2347 38.976 65.8507 38.98 65.6587 38.94C65.4667 38.9 65.2907 38.752 65.1307 38.496C64.6347 37.712 64.4627 36.54 64.6147 34.98C64.7667 33.42 65.1947 32.096 65.8987 31.008C66.3147 30.4 66.8827 29.756 67.6027 29.076C68.3227 28.396 69.0907 27.832 69.9067 27.384C70.4187 27.08 71.3067 26.928 72.5707 26.928C72.9707 26.912 73.3067 26.852 73.5787 26.748C73.8507 26.644 74.0747 26.484 74.2507 26.268C74.4267 26.052 74.5667 25.836 74.6707 25.62C74.7747 25.404 74.9107 25.116 75.0787 24.756C75.2467 24.396 75.4107 24.088 75.5707 23.832C78.0347 19.944 79.3627 17.856 79.5547 17.568C79.6027 17.472 79.6987 17.304 79.8427 17.064C80.8507 15.352 81.5947 14.424 82.0747 14.28C82.4907 14.152 82.7867 14.448 82.9627 15.168C83.1547 15.888 83.0747 16.736 82.7227 17.712C82.3707 18.688 81.9427 19.556 81.4387 20.316C80.9347 21.076 80.3307 21.948 79.6267 22.932C78.9227 23.916 78.4587 24.616 78.2347 25.032C78.0427 25.352 77.8307 25.836 77.5987 26.484C77.3667 27.132 77.2027 27.568 77.1067 27.792C75.7147 30.816 75.1547 33.36 75.4267 35.424C75.5227 36.192 75.7187 36.74 76.0147 37.068C76.3107 37.396 76.7387 37.56 77.2987 37.56C77.6987 37.56 78.2107 37.472 78.8347 37.296C79.0747 37.216 79.2187 37.16 79.2667 37.128C80.4987 36.488 81.4667 35.888 82.1707 35.328ZM69.6907 34.368C71.9627 31.488 73.0667 29.816 73.0027 29.352C72.9227 29.016 72.6147 28.852 72.0787 28.86C71.5427 28.868 71.0267 29.048 70.5307 29.4C69.9227 29.816 69.2547 30.432 68.5267 31.248C67.7987 32.064 67.3307 32.72 67.1227 33.216C66.8827 33.744 66.7627 34.4 66.7627 35.184C66.7627 36.16 66.9547 36.624 67.3387 36.576C67.7867 36.528 68.5707 35.792 69.6907 34.368ZM93.4323 36.312C93.7843 36.024 94.0923 35.908 94.3563 35.964C94.6203 36.02 94.7523 36.272 94.7523 36.72C94.7683 36.864 94.7403 37.008 94.6683 37.152C94.5963 37.296 94.5203 37.42 94.4403 37.524C94.3603 37.628 94.2443 37.744 94.0923 37.872C93.9403 38 93.8163 38.096 93.7203 38.16C93.6243 38.224 93.4843 38.316 93.3003 38.436C93.1163 38.556 93.0083 38.632 92.9763 38.664C92.5923 38.92 92.2003 39.136 91.8003 39.312C91.7683 39.328 91.7243 39.348 91.6683 39.372C91.6123 39.396 91.5523 39.42 91.4883 39.444C91.4243 39.468 91.3603 39.492 91.2963 39.516C91.2323 39.54 91.1803 39.56 91.1403 39.576L91.0803 39.6C90.1043 40 89.0563 40.232 87.9363 40.296C86.7843 40.36 85.9443 40.256 85.4163 39.984C85.3523 39.952 85.0963 39.84 84.6483 39.648C84.2003 39.456 83.8803 39.288 83.6883 39.144C83.3203 38.904 82.9683 38.384 82.6323 37.584C82.0083 36.144 81.6963 34.872 81.6963 33.768C81.6963 33.096 81.8163 32.216 82.0563 31.128C82.0723 31.064 82.1003 30.928 82.1403 30.72C82.1803 30.512 82.2163 30.356 82.2483 30.252C82.2803 30.148 82.3203 30.004 82.3683 29.82C82.4163 29.636 82.4643 29.48 82.5123 29.352C82.5603 29.224 82.6163 29.092 82.6803 28.956C82.7443 28.82 82.8083 28.696 82.8723 28.584C83.2083 28.12 83.4803 27.784 83.6883 27.576C84.5523 26.68 85.6483 26.28 86.9763 26.376C88.3523 26.488 89.0963 26.944 89.2083 27.744C89.3043 28.368 89.2683 29.012 89.1003 29.676C88.9323 30.34 88.7243 30.888 88.4763 31.32C88.2283 31.752 87.8843 32.312 87.4443 33C87.0043 33.688 86.6883 34.216 86.4963 34.584C85.7923 35.912 85.4403 36.704 85.4403 36.96C85.4403 37.168 85.6403 37.464 86.0403 37.848C86.2963 38.088 86.5243 38.232 86.7243 38.28C86.9243 38.328 87.2883 38.304 87.8163 38.208C88.6483 38.096 89.5523 37.896 90.5283 37.608C90.8963 37.48 91.4323 37.264 92.1363 36.96C92.8403 36.656 93.2723 36.44 93.4323 36.312ZM84.1203 34.608C84.2643 34.608 84.6643 33.984 85.3203 32.736C85.9603 31.488 86.2803 30.736 86.2803 30.48C86.2803 30.176 86.1163 29.98 85.7883 29.892C85.4603 29.804 85.2003 29.88 85.0083 30.12C84.8483 30.312 84.6883 30.6 84.5283 30.984C84.3683 31.368 84.2403 31.76 84.1443 32.16C84.0643 32.56 83.9923 32.944 83.9283 33.312C83.8643 33.68 83.8483 33.988 83.8803 34.236C83.9123 34.484 83.9923 34.608 84.1203 34.608ZM96.869 30.936C96.341 31.576 95.885 32.176 95.501 32.736C95.117 33.296 94.941 33.648 94.973 33.792C94.973 34.048 95.197 34.632 95.645 35.544C96.189 36.584 96.821 37.104 97.541 37.104C97.685 37.104 97.833 37.088 97.985 37.056C98.137 37.024 98.329 36.968 98.561 36.888C98.793 36.808 98.941 36.76 99.005 36.744C99.181 36.696 99.469 36.552 99.869 36.312C100.365 36.008 100.837 35.68 101.285 35.328C101.637 35.024 101.945 34.9 102.209 34.956C102.473 35.012 102.613 35.264 102.629 35.712C102.629 35.856 102.593 36 102.521 36.144C102.449 36.288 102.373 36.412 102.293 36.516C102.213 36.62 102.097 36.74 101.945 36.876C101.793 37.012 101.669 37.112 101.573 37.176C101.477 37.24 101.341 37.332 101.165 37.452C100.989 37.572 100.877 37.648 100.829 37.68C100.701 37.76 100.509 37.88 100.253 38.04C99.997 38.2 99.805 38.32 99.677 38.4C99.133 38.768 98.581 38.984 98.021 39.048C97.477 39.128 97.069 39.132 96.797 39.06C96.525 38.988 96.125 38.776 95.597 38.424C94.925 37.96 94.381 37.456 93.965 36.912C93.549 36.368 93.269 35.848 93.125 35.352C92.981 34.856 92.909 34.28 92.909 33.624C92.909 32.968 92.949 32.38 93.029 31.86C93.109 31.34 93.209 30.7 93.329 29.94C93.449 29.18 93.517 28.528 93.533 27.984C93.549 27.776 93.569 27.56 93.593 27.336C93.617 27.112 93.641 26.908 93.665 26.724C93.689 26.54 93.725 26.32 93.773 26.064C93.821 25.808 93.857 25.608 93.881 25.464C93.905 25.32 93.957 25.108 94.037 24.828C94.117 24.548 94.169 24.352 94.193 24.24C94.217 24.128 94.273 23.916 94.361 23.604C94.449 23.292 94.505 23.096 94.529 23.016C94.553 22.936 94.617 22.724 94.721 22.38C94.825 22.036 94.885 21.832 94.901 21.768C95.077 21.176 95.229 20.744 95.357 20.472C95.501 20.184 95.697 19.9 95.945 19.62C96.193 19.34 96.417 19.112 96.617 18.936C96.817 18.76 97.085 18.536 97.421 18.264C97.549 18.168 97.769 17.992 98.081 17.736C98.393 17.48 98.621 17.3 98.765 17.196C98.909 17.092 99.105 16.948 99.353 16.764C99.601 16.58 99.841 16.42 100.073 16.284C100.305 16.148 100.557 16.016 100.829 15.888C101.437 15.584 101.909 15.472 102.245 15.552C102.501 15.616 102.717 15.756 102.893 15.972C103.069 16.188 103.189 16.432 103.253 16.704C103.301 16.896 103.337 17.092 103.361 17.292C103.385 17.492 103.389 17.708 103.373 17.94C103.357 18.172 103.345 18.368 103.337 18.528C103.329 18.688 103.293 18.904 103.229 19.176C103.165 19.448 103.121 19.644 103.097 19.764C103.073 19.884 103.009 20.092 102.905 20.388C102.801 20.684 102.737 20.872 102.713 20.952C102.689 21.032 102.617 21.236 102.497 21.564C102.377 21.892 102.309 22.08 102.293 22.128C101.893 23.2 101.573 23.904 101.333 24.24C101.173 24.464 100.709 25.304 99.941 26.76C99.157 28.216 98.613 29.088 98.309 29.376C97.877 29.776 97.397 30.296 96.869 30.936ZM96.557 25.104C96.381 25.264 96.177 25.808 95.945 26.736C95.713 27.664 95.669 28.2 95.813 28.344C95.893 28.408 96.025 28.34 96.209 28.14C96.393 27.94 96.617 27.628 96.881 27.204C97.145 26.78 97.405 26.272 97.661 25.68C98.189 24.624 98.453 24.048 98.453 23.952C98.453 23.904 98.701 23.36 99.197 22.32C99.693 21.296 99.941 20.672 99.941 20.448C99.941 19.984 99.733 19.936 99.317 20.304C99.045 20.512 98.781 20.84 98.525 21.288C98.125 22.024 97.749 22.616 97.397 23.064C97.077 23.48 96.917 23.872 96.917 24.24C96.917 24.592 96.797 24.88 96.557 25.104ZM106.849 24.432C106.401 24.544 105.961 24.384 105.529 23.952C105.225 23.648 105.065 23.448 105.049 23.352C105.033 23.256 105.145 23.112 105.385 22.92C105.721 22.68 106.149 22.56 106.669 22.56C107.189 22.56 107.545 22.68 107.737 22.92C107.945 23.192 107.957 23.488 107.773 23.808C107.589 24.128 107.281 24.336 106.849 24.432ZM111.121 35.928C111.233 36.12 111.237 36.304 111.133 36.48C111.029 36.656 110.737 36.944 110.257 37.344C109.505 37.984 108.617 38.568 107.593 39.096C106.825 39.48 106.029 39.636 105.205 39.564C104.381 39.492 103.605 39.256 102.877 38.856C102.149 38.456 101.521 37.936 100.993 37.296C100.241 36.4 100.017 35.208 100.321 33.72C100.353 33.608 100.417 33.224 100.513 32.568C100.609 31.912 100.709 31.332 100.813 30.828C100.917 30.324 101.033 29.992 101.161 29.832C101.305 29.656 101.541 29.536 101.869 29.472C102.197 29.408 102.537 29.404 102.889 29.46C103.241 29.516 103.577 29.62 103.897 29.772C104.217 29.924 104.437 30.128 104.557 30.384C104.677 30.64 104.673 30.928 104.545 31.248C104.177 32.016 103.993 32.552 103.993 32.856C103.993 33.144 103.833 33.504 103.513 33.936C103.241 34.256 103.077 34.644 103.021 35.1C102.965 35.556 103.041 35.856 103.249 36C103.425 36.064 103.513 36.264 103.513 36.6C103.513 36.888 103.721 37.216 104.137 37.584C104.425 37.856 104.653 38.008 104.821 38.04C104.989 38.072 105.297 38.032 105.745 37.92C106.401 37.68 107.241 37.192 108.265 36.456C109.081 35.864 109.701 35.528 110.125 35.448C110.549 35.368 110.881 35.528 111.121 35.928ZM122.065 36.048C122.417 35.76 122.721 35.64 122.977 35.688C123.233 35.736 123.369 35.992 123.385 36.456C123.385 36.568 123.365 36.684 123.325 36.804C123.285 36.924 123.221 37.04 123.133 37.152C123.045 37.264 122.961 37.364 122.881 37.452C122.801 37.54 122.693 37.636 122.557 37.74C122.421 37.844 122.309 37.924 122.221 37.98C122.133 38.036 122.017 38.112 121.873 38.208C121.729 38.304 121.633 38.368 121.585 38.4C121.201 38.656 120.809 38.872 120.409 39.048C120.153 39.16 119.721 39.316 119.113 39.516C118.505 39.716 117.729 39.94 116.785 40.188C115.841 40.436 114.921 40.532 114.025 40.476C113.129 40.42 112.457 40.168 112.009 39.72C111.833 39.544 111.633 39.288 111.409 38.952C111.185 38.616 110.989 38.288 110.821 37.968C110.653 37.648 110.529 37.384 110.449 37.176C110.241 36.616 110.145 35.84 110.161 34.848C110.305 31.824 111.601 29.232 114.049 27.072C114.625 26.592 115.049 26.3 115.321 26.196C115.593 26.092 116.105 26.04 116.857 26.04C118.233 26.04 119.285 26.344 120.013 26.952C120.741 27.56 121.017 28.36 120.841 29.352C120.729 29.848 120.621 30.156 120.517 30.276C120.413 30.396 120.177 30.48 119.809 30.528C119.313 30.576 118.845 30.476 118.405 30.228C117.965 29.98 117.793 29.712 117.889 29.424C117.985 29.184 117.933 28.94 117.733 28.692C117.533 28.444 117.289 28.32 117.001 28.32C116.473 28.32 115.669 28.876 114.589 29.988C113.509 31.1 112.969 31.936 112.969 32.496C112.969 32.704 112.857 33.008 112.633 33.408C112.393 33.76 112.281 34.368 112.297 35.232C112.329 36.08 112.465 36.68 112.705 37.032C113.089 37.608 113.733 38.004 114.637 38.22C115.541 38.436 116.369 38.472 117.121 38.328C117.521 38.264 117.953 38.136 118.417 37.944C119.265 37.608 120.041 37.168 120.745 36.624C121.289 36.224 121.665 36.072 121.873 36.168C121.889 36.168 121.917 36.152 121.957 36.12C121.997 36.088 122.033 36.064 122.065 36.048ZM128.013 24.432C127.565 24.544 127.125 24.384 126.693 23.952C126.389 23.648 126.229 23.448 126.213 23.352C126.197 23.256 126.309 23.112 126.549 22.92C126.885 22.68 127.313 22.56 127.833 22.56C128.353 22.56 128.709 22.68 128.901 22.92C129.109 23.192 129.121 23.488 128.937 23.808C128.753 24.128 128.445 24.336 128.013 24.432ZM132.285 35.928C132.397 36.12 132.401 36.304 132.297 36.48C132.193 36.656 131.901 36.944 131.421 37.344C130.669 37.984 129.781 38.568 128.757 39.096C127.989 39.48 127.193 39.636 126.369 39.564C125.545 39.492 124.769 39.256 124.041 38.856C123.313 38.456 122.685 37.936 122.157 37.296C121.405 36.4 121.181 35.208 121.485 33.72C121.517 33.608 121.581 33.224 121.677 32.568C121.773 31.912 121.873 31.332 121.977 30.828C122.081 30.324 122.197 29.992 122.325 29.832C122.469 29.656 122.705 29.536 123.033 29.472C123.361 29.408 123.701 29.404 124.053 29.46C124.405 29.516 124.741 29.62 125.061 29.772C125.381 29.924 125.601 30.128 125.721 30.384C125.841 30.64 125.837 30.928 125.709 31.248C125.341 32.016 125.157 32.552 125.157 32.856C125.157 33.144 124.997 33.504 124.677 33.936C124.405 34.256 124.241 34.644 124.185 35.1C124.129 35.556 124.205 35.856 124.413 36C124.589 36.064 124.677 36.264 124.677 36.6C124.677 36.888 124.885 37.216 125.301 37.584C125.589 37.856 125.817 38.008 125.985 38.04C126.153 38.072 126.461 38.032 126.909 37.92C127.565 37.68 128.405 37.192 129.429 36.456C130.245 35.864 130.865 35.528 131.289 35.448C131.713 35.368 132.045 35.528 132.285 35.928ZM144.333 34.392C144.573 34.52 144.693 34.8 144.693 35.232C144.709 35.728 144.429 36.192 143.853 36.624C143.645 36.768 143.405 36.912 143.133 37.056C143.085 37.072 143.029 37.104 142.965 37.152C142.741 37.28 142.549 37.352 142.389 37.368C141.909 37.4 141.445 37.208 140.997 36.792C140.885 36.696 140.765 36.528 140.637 36.288L140.565 36.168C140.421 35.928 140.285 35.776 140.157 35.712C140.029 35.648 139.869 35.664 139.677 35.76C139.437 35.888 139.165 36.28 138.861 36.936C138.717 37.272 138.597 37.504 138.501 37.632C138.197 38.08 137.933 38.336 137.709 38.4C137.421 38.544 137.029 38.768 136.533 39.072C135.925 39.44 135.349 39.64 134.805 39.672C134.181 39.72 133.717 39.784 133.413 39.864C133.333 39.88 133.253 39.888 133.173 39.888C132.997 39.888 132.845 39.856 132.717 39.792C132.525 39.712 132.245 39.496 131.877 39.144C131.477 38.776 131.205 38.452 131.061 38.172C130.917 37.892 130.773 37.4 130.629 36.696C130.389 35.544 130.333 34.62 130.461 33.924C130.589 33.228 130.941 32.416 131.517 31.488C132.253 30.304 132.949 29.448 133.605 28.92C134.261 28.392 135.069 28.016 136.029 27.792C136.493 27.696 136.901 27.528 137.253 27.288C137.813 26.92 138.309 26.784 138.741 26.88C139.157 26.96 139.637 27.288 140.181 27.864C140.469 28.184 140.677 28.44 140.805 28.632C140.933 28.824 141.021 29.008 141.069 29.184C141.117 29.36 141.141 29.616 141.141 29.952C141.141 31.376 141.189 32.48 141.285 33.264C141.333 33.728 141.441 34.084 141.609 34.332C141.777 34.58 142.069 34.88 142.485 35.232L142.557 35.184C142.845 34.992 143.053 34.84 143.181 34.728C143.661 34.36 144.045 34.248 144.333 34.392ZM138.789 30.264C138.789 29.64 138.725 29.296 138.597 29.232C138.565 29.264 138.533 29.304 138.501 29.352C138.421 29.496 138.429 29.824 138.525 30.336C138.589 30.704 138.653 30.936 138.717 31.032C138.765 30.904 138.789 30.648 138.789 30.264ZM138.093 33.96C138.157 33.592 138.149 33.328 138.069 33.168C138.005 33.008 137.805 32.76 137.469 32.424C136.941 31.912 136.677 31.488 136.677 31.152C136.677 30.928 136.605 30.664 136.461 30.36C136.317 30.056 136.173 29.856 136.029 29.76C135.917 29.68 135.821 29.64 135.741 29.64C135.677 29.64 135.621 29.656 135.573 29.688C135.413 29.768 135.085 30.064 134.589 30.576C134.157 31.008 133.753 31.56 133.377 32.232C133.001 32.904 132.725 33.536 132.549 34.128C132.373 34.688 132.341 35.096 132.453 35.352C132.581 35.592 132.653 36 132.669 36.576C132.717 37.008 132.781 37.328 132.861 37.536C132.941 37.712 133.061 37.832 133.221 37.896C133.397 37.976 133.685 38.016 134.085 38.016C134.277 38.016 134.437 38.008 134.565 37.992C134.693 37.992 134.813 37.976 134.925 37.944C135.037 37.912 135.141 37.872 135.237 37.824C135.349 37.76 135.461 37.688 135.573 37.608C135.685 37.528 135.821 37.424 135.981 37.296C136.589 36.816 136.933 36.432 137.013 36.144C137.109 35.84 137.301 35.52 137.589 35.184C137.845 34.912 138.013 34.504 138.093 33.96ZM159.764 35.784C160.116 35.496 160.424 35.376 160.688 35.424C160.952 35.472 161.084 35.728 161.084 36.192C161.084 36.336 161.052 36.48 160.988 36.624C160.924 36.768 160.852 36.888 160.772 36.984C160.692 37.08 160.572 37.196 160.412 37.332C160.252 37.468 160.128 37.568 160.04 37.632C159.952 37.696 159.816 37.788 159.632 37.908C159.448 38.028 159.332 38.104 159.284 38.136C158.148 38.92 157.564 39.336 157.532 39.384C157.436 39.48 157.2 39.584 156.824 39.696C156.448 39.808 156.156 39.864 155.948 39.864C155.676 39.944 155.436 39.984 155.228 39.984C155.02 39.984 154.784 39.948 154.52 39.876C154.256 39.804 154.064 39.744 153.944 39.696C153.824 39.648 153.724 39.608 153.644 39.576C153.212 39.368 152.62 38.912 151.868 38.208L150.932 37.32L149.732 38.208C148.9 38.768 147.996 39.112 147.02 39.24C146.204 39.32 145.428 39.232 144.692 38.976C143.956 38.72 143.376 38.276 142.952 37.644C142.528 37.012 142.404 36.256 142.58 35.376C142.772 34.448 143.232 33.428 143.96 32.316C144.688 31.204 145.46 30.256 146.276 29.472C146.9 28.88 147.396 28.584 147.764 28.584C147.94 28.584 148.18 28.744 148.484 29.064C148.692 29.288 148.792 29.472 148.784 29.616C148.776 29.76 148.652 30.056 148.412 30.504C146.444 34.36 145.932 36.456 146.876 36.792L147.068 36.816C147.724 36.912 148.628 36.368 149.78 35.184C150.932 34 151.732 32.8 152.18 31.584C152.516 30.768 152.924 30.032 153.404 29.376C153.82 28.8 154.124 28.476 154.316 28.404C154.508 28.332 154.868 28.432 155.396 28.704C155.844 28.944 156.08 29.216 156.104 29.52C156.128 29.824 155.964 30.312 155.612 30.984C155.436 31.256 155.292 31.56 155.18 31.896C155.068 32.216 154.98 32.504 154.916 32.76C154.884 32.84 154.844 32.988 154.796 33.204C154.748 33.42 154.7 33.6 154.652 33.744C154.556 34.144 154.468 34.472 154.388 34.728C154.228 35.4 154.148 36.036 154.148 36.636C154.148 37.236 154.244 37.632 154.436 37.824C154.596 37.984 154.94 38.08 155.468 38.112C155.548 38.08 155.764 38.004 156.116 37.884C156.468 37.764 156.708 37.672 156.836 37.608C158.068 36.968 159.044 36.36 159.764 35.784ZM172.02 34.464C172.372 34.16 172.68 34.036 172.944 34.092C173.208 34.148 173.34 34.408 173.34 34.872C173.34 34.968 173.324 35.072 173.292 35.184C173.26 35.296 173.216 35.396 173.16 35.484C173.104 35.572 173.032 35.664 172.944 35.76C172.856 35.856 172.768 35.94 172.68 36.012C172.592 36.084 172.492 36.16 172.38 36.24C172.268 36.32 172.172 36.388 172.092 36.444C172.012 36.5 171.916 36.568 171.804 36.648C171.692 36.728 171.612 36.784 171.564 36.816C171.18 37.072 170.78 37.288 170.364 37.464C170.332 37.48 170.252 37.52 170.124 37.584C169.692 38.032 169.308 38.336 168.972 38.496C168.652 38.624 168.228 38.704 167.7 38.736C167.156 38.896 166.78 38.88 166.572 38.688C166.508 38.688 166.32 38.672 166.008 38.64C165.696 38.608 165.484 38.588 165.372 38.58C165.26 38.572 165.088 38.568 164.856 38.568C164.624 38.568 164.424 38.592 164.256 38.64C164.088 38.688 163.924 38.752 163.764 38.832C163.556 38.96 163.292 39.016 162.972 39C162.652 38.984 162.1 38.92 161.316 38.808C160.756 38.728 160.284 38.672 159.9 38.64C159.82 38.64 159.732 38.64 159.636 38.64C159.54 38.64 159.436 38.636 159.324 38.628C159.212 38.62 159.124 38.592 159.06 38.544C158.884 38.432 158.668 38 158.412 37.248C158.268 36.816 158.18 36.368 158.148 35.904C158.116 35.712 158.116 35.56 158.148 35.448C158.228 35.048 158.356 34.8 158.532 34.704C158.596 34.672 158.716 34.64 158.892 34.608C159.068 34.576 159.196 34.52 159.276 34.44C159.42 34.328 159.54 34.144 159.636 33.888C159.732 33.616 159.788 33.336 159.804 33.048C159.82 32.792 159.844 32.624 159.876 32.544C159.94 32.448 160.064 32.344 160.248 32.232C160.432 32.12 160.532 32.056 160.548 32.04C160.74 31.88 160.908 31.664 161.052 31.392C161.116 31.248 161.244 30.8 161.436 30.048C161.612 29.456 161.756 28.848 161.868 28.224C161.98 27.616 162.06 27.096 162.108 26.664C162.188 25.672 162.296 25.088 162.432 24.912C162.568 24.736 162.824 24.652 163.2 24.66C163.576 24.668 163.9 24.776 164.172 24.984C164.3 25.064 164.416 25.196 164.52 25.38C164.624 25.564 164.7 25.728 164.748 25.872C164.796 26.016 164.856 26.216 164.928 26.472C165 26.728 165.052 26.896 165.084 26.976C165.372 27.84 165.58 28.64 165.708 29.376C165.756 29.664 165.812 30.084 165.876 30.636C165.94 31.188 166.012 31.688 166.092 32.136C166.172 32.584 166.284 33 166.428 33.384C166.684 34.088 166.772 34.72 166.692 35.28C166.644 35.632 166.62 35.96 166.62 36.264C166.62 36.568 166.72 36.816 166.92 37.008C167.12 37.2 167.428 37.28 167.844 37.248C168.02 37.232 168.196 37.192 168.372 37.128C168.548 37.064 168.696 37 168.816 36.936C168.936 36.872 169.088 36.768 169.272 36.624C169.456 36.48 169.58 36.38 169.644 36.324C169.708 36.268 169.844 36.144 170.052 35.952C170.292 35.728 170.664 35.436 171.168 35.076C171.672 34.716 171.956 34.512 172.02 34.464ZM163.26 36.096C163.98 35.936 164.404 35.58 164.532 35.028C164.66 34.476 164.524 33.584 164.124 32.352C163.724 31.184 163.476 30.6 163.38 30.6C163.268 30.6 163.172 30.824 163.092 31.272C162.996 31.688 162.876 31.992 162.732 32.184C162.54 32.456 162.236 33.036 161.82 33.924C161.404 34.812 161.228 35.304 161.292 35.4C161.372 35.512 161.532 35.632 161.772 35.76C162.012 35.888 162.272 35.984 162.552 36.048C162.832 36.112 163.068 36.128 163.26 36.096ZM175.545 37.656C175.113 37.192 174.933 36.8 175.005 36.48C175.077 36.16 175.409 35.744 176.001 35.232L177.081 34.344C177.337 34.344 177.713 34.484 178.209 34.764C178.705 35.044 178.993 35.264 179.073 35.424C179.937 37.504 179.721 39.536 178.425 41.52C178.073 42.064 177.757 42.388 177.477 42.492C177.197 42.596 176.825 42.528 176.361 42.288C176.009 42.096 175.781 41.748 175.677 41.244C175.573 40.74 175.609 40.136 175.785 39.432C175.929 38.92 175.985 38.56 175.953 38.352C175.921 38.144 175.785 37.912 175.545 37.656Z" fill="#F7C050"/>
<path d="M10.261 53H14.981V67H10.261V53ZM5.90102 67H1.18102V53H5.90102V67ZM10.581 61.84H5.58102V57.96H10.581V61.84ZM24.5952 67.32C23.4619 67.32 22.4086 67.14 21.4352 66.78C20.4752 66.42 19.6419 65.9133 18.9352 65.26C18.2286 64.5933 17.6752 63.8133 17.2752 62.92C16.8886 62.0267 16.6952 61.0533 16.6952 60C16.6952 58.9333 16.8886 57.96 17.2752 57.08C17.6752 56.1867 18.2286 55.4133 18.9352 54.76C19.6419 54.0933 20.4752 53.58 21.4352 53.22C22.4086 52.86 23.4619 52.68 24.5952 52.68C25.7419 52.68 26.7952 52.86 27.7552 53.22C28.7152 53.58 29.5486 54.0933 30.2552 54.76C30.9619 55.4133 31.5086 56.1867 31.8952 57.08C32.2952 57.96 32.4952 58.9333 32.4952 60C32.4952 61.0533 32.2952 62.0267 31.8952 62.92C31.5086 63.8133 30.9619 64.5933 30.2552 65.26C29.5486 65.9133 28.7152 66.42 27.7552 66.78C26.7952 67.14 25.7419 67.32 24.5952 67.32ZM24.5952 63.5C25.0352 63.5 25.4419 63.42 25.8152 63.26C26.2019 63.1 26.5352 62.8733 26.8152 62.58C27.1086 62.2733 27.3352 61.9067 27.4952 61.48C27.6552 61.04 27.7352 60.5467 27.7352 60C27.7352 59.4533 27.6552 58.9667 27.4952 58.54C27.3352 58.1 27.1086 57.7333 26.8152 57.44C26.5352 57.1333 26.2019 56.9 25.8152 56.74C25.4419 56.58 25.0352 56.5 24.5952 56.5C24.1552 56.5 23.7419 56.58 23.3552 56.74C22.9819 56.9 22.6486 57.1333 22.3552 57.44C22.0752 57.7333 21.8552 58.1 21.6952 58.54C21.5352 58.9667 21.4552 59.4533 21.4552 60C21.4552 60.5467 21.5352 61.04 21.6952 61.48C21.8552 61.9067 22.0752 62.2733 22.3552 62.58C22.6486 62.8733 22.9819 63.1 23.3552 63.26C23.7419 63.42 24.1552 63.5 24.5952 63.5ZM37.053 67V56.66H32.953V53H45.873V56.66H41.773V67H37.053Z" fill="#DA5348"/>
<path d="M62.3598 58.456C62.5944 58.456 62.7864 58.536 62.9358 58.696C63.0851 58.8453 63.1597 59.0373 63.1597 59.272V66.184C63.1597 66.4187 63.0851 66.616 62.9358 66.776C62.7864 66.9253 62.5944 67 62.3598 67C62.1358 67 61.9438 66.9253 61.7838 66.776C61.6344 66.616 61.5598 66.4187 61.5598 66.184V65.032L61.8958 65.08C61.8958 65.272 61.8158 65.4853 61.6558 65.72C61.5064 65.9547 61.2984 66.184 61.0318 66.408C60.7651 66.6213 60.4504 66.8027 60.0878 66.952C59.7251 67.0907 59.3358 67.16 58.9198 67.16C58.1838 67.16 57.5224 66.9733 56.9358 66.6C56.3491 66.216 55.8851 65.6933 55.5438 65.032C55.2024 64.3707 55.0318 63.6187 55.0318 62.776C55.0318 61.912 55.2024 61.1547 55.5438 60.504C55.8851 59.8427 56.3438 59.3253 56.9198 58.952C57.5064 58.5787 58.1571 58.392 58.8718 58.392C59.3304 58.392 59.7518 58.4667 60.1358 58.616C60.5304 58.7653 60.8718 58.9573 61.1598 59.192C61.4478 59.4267 61.6664 59.6773 61.8158 59.944C61.9758 60.2 62.0558 60.4453 62.0558 60.68L61.5598 60.728V59.272C61.5598 59.048 61.6344 58.856 61.7838 58.696C61.9438 58.536 62.1358 58.456 62.3598 58.456ZM59.0958 65.688C59.5971 65.688 60.0398 65.56 60.4238 65.304C60.8078 65.048 61.1064 64.7013 61.3198 64.264C61.5331 63.816 61.6398 63.32 61.6398 62.776C61.6398 62.2213 61.5331 61.7253 61.3198 61.288C61.1064 60.8507 60.8078 60.504 60.4238 60.248C60.0398 59.992 59.5971 59.864 59.0958 59.864C58.6051 59.864 58.1678 59.992 57.7838 60.248C57.4104 60.504 57.1118 60.8507 56.8878 61.288C56.6744 61.7253 56.5678 62.2213 56.5678 62.776C56.5678 63.32 56.6744 63.816 56.8878 64.264C57.1118 64.7013 57.4104 65.048 57.7838 65.304C58.1678 65.56 58.6051 65.688 59.0958 65.688ZM69.7373 58.392C70.4946 58.392 71.0813 58.552 71.4973 58.872C71.9133 59.1813 72.2013 59.6027 72.3612 60.136C72.5319 60.6587 72.6173 61.2453 72.6173 61.896V66.184C72.6173 66.4187 72.5373 66.616 72.3773 66.776C72.2279 66.9253 72.0413 67 71.8173 67C71.5826 67 71.3906 66.9253 71.2413 66.776C71.0919 66.616 71.0173 66.4187 71.0173 66.184V61.912C71.0173 61.528 70.9639 61.1867 70.8573 60.888C70.7506 60.5787 70.5639 60.3333 70.2973 60.152C70.0413 59.96 69.6786 59.864 69.2093 59.864C68.7719 59.864 68.3879 59.96 68.0573 60.152C67.7266 60.3333 67.4653 60.5787 67.2733 60.888C67.0919 61.1867 67.0013 61.528 67.0013 61.912V66.184C67.0013 66.4187 66.9213 66.616 66.7613 66.776C66.6119 66.9253 66.4253 67 66.2013 67C65.9666 67 65.7746 66.9253 65.6253 66.776C65.4759 66.616 65.4013 66.4187 65.4013 66.184V59.4C65.4013 59.1653 65.4759 58.9733 65.6253 58.824C65.7746 58.664 65.9666 58.584 66.2013 58.584C66.4253 58.584 66.6119 58.664 66.7613 58.824C66.9213 58.9733 67.0013 59.1653 67.0013 59.4V60.296L66.7133 60.456C66.7879 60.2213 66.9159 59.9867 67.0973 59.752C67.2893 59.5067 67.5186 59.2827 67.7853 59.08C68.0519 58.8667 68.3506 58.7013 68.6813 58.584C69.0119 58.456 69.3639 58.392 69.7373 58.392ZM81.7348 55.16C81.9694 55.16 82.1614 55.2347 82.3108 55.384C82.4601 55.5333 82.5347 55.7307 82.5347 55.976V66.184C82.5347 66.4187 82.4601 66.616 82.3108 66.776C82.1614 66.9253 81.9694 67 81.7348 67C81.5108 67 81.3188 66.9253 81.1588 66.776C81.0094 66.616 80.9348 66.4187 80.9348 66.184V65.032L81.2708 65.048C81.2708 65.24 81.1908 65.4587 81.0308 65.704C80.8814 65.9387 80.6734 66.168 80.4068 66.392C80.1401 66.616 79.8254 66.8027 79.4628 66.952C79.1001 67.0907 78.7108 67.16 78.2948 67.16C77.5588 67.16 76.8974 66.9733 76.3108 66.6C75.7241 66.216 75.2601 65.6987 74.9188 65.048C74.5774 64.3867 74.4068 63.6293 74.4068 62.776C74.4068 61.9227 74.5774 61.1707 74.9188 60.52C75.2601 59.8587 75.7188 59.3413 76.2948 58.968C76.8814 58.584 77.5321 58.392 78.2468 58.392C78.6948 58.392 79.1108 58.4667 79.4948 58.616C79.8894 58.7653 80.2308 58.9573 80.5188 59.192C80.8068 59.4267 81.0308 59.6773 81.1908 59.944C81.3508 60.2 81.4308 60.4453 81.4308 60.68L80.9348 60.728V55.976C80.9348 55.7413 81.0094 55.5493 81.1588 55.4C81.3188 55.24 81.5108 55.16 81.7348 55.16ZM78.4708 65.688C78.9828 65.688 79.4254 65.56 79.7988 65.304C80.1828 65.048 80.4814 64.7013 80.6948 64.264C80.9081 63.8267 81.0148 63.3307 81.0148 62.776C81.0148 62.2213 80.9081 61.7253 80.6948 61.288C80.4814 60.8507 80.1828 60.504 79.7988 60.248C79.4148 59.992 78.9721 59.864 78.4708 59.864C77.9801 59.864 77.5428 59.992 77.1588 60.248C76.7854 60.504 76.4868 60.8507 76.2628 61.288C76.0494 61.7253 75.9428 62.2213 75.9428 62.776C75.9428 63.3307 76.0494 63.8267 76.2628 64.264C76.4868 64.7013 76.7854 65.048 77.1588 65.304C77.5428 65.56 77.9801 65.688 78.4708 65.688Z" fill="#F6EDE6"/>
<path d="M25.1016 88.6016C25.1016 89.2656 25.2578 89.7852 25.5703 90.1602C25.8906 90.5273 26.3281 90.7109 26.8828 90.7109H27.4219C28.0391 90.7109 28.5742 90.3477 29.0273 89.6211C29.4883 88.8867 29.7188 87.9844 29.7188 86.9141V86.1289C29.7188 84.9414 29.4805 83.9922 29.0039 83.2812C28.5352 82.5703 27.957 82.2148 27.2695 82.2148H27.0703C26.2969 82.2148 25.7617 82.4805 25.4648 83.0117C25.168 83.5352 25.0195 84.6367 25.0195 86.3164V86.5508L25.0312 86.668V87.2422L25.043 87.3594C25.043 87.4375 25.043 87.5156 25.043 87.5938L25.0898 88.3789C25.0977 88.457 25.1016 88.5312 25.1016 88.6016ZM23.0156 91.9062C22.4453 91.9062 22.0664 91.8086 21.8789 91.6133C21.6992 91.4102 21.6094 91.168 21.6094 90.8867C21.6094 90.6055 21.6836 90 21.832 89.0703C21.9805 88.1328 22.0547 87.4883 22.0547 87.1367L22.0664 86.8555V85.707L22.0781 85.1328V83.1055C22.0781 80.082 22.0391 78.3516 21.9609 77.9141C21.8828 77.4766 21.6914 77.1367 21.3867 76.8945C20.8633 76.4727 20.6016 76.1914 20.6016 76.0508C20.6016 75.7227 20.9102 75.4766 21.5273 75.3125C22.4336 75.0703 23.1641 74.9492 23.7188 74.9492H23.9883C24.5664 74.9492 24.9141 75.1797 25.0312 75.6406C25.1094 75.9531 25.1484 76.8633 25.1484 78.3711C25.1484 79.8789 25.168 80.7188 25.207 80.8906C25.2695 81.1641 25.4727 81.3008 25.8164 81.3008C25.8164 81.3008 25.918 81.2656 26.1211 81.1953C27.0508 80.8672 27.8438 80.7031 28.5 80.7031C29.9141 80.7031 31.0352 81.2305 31.8633 82.2852C32.6914 83.332 33.1055 84.6016 33.1055 86.0938V86.3867C33.1055 87.1836 32.9414 87.9648 32.6133 88.7305C31.9805 90.2227 30.9805 91.2422 29.6133 91.7891C28.8711 92.0859 28.1445 92.2344 27.4336 92.2344H27.1523C26.918 92.2344 26.5586 92.1836 26.0742 92.082C25.5898 91.9805 25.0977 91.9297 24.5977 91.9297L24.3398 91.9062C24.0742 91.8828 23.8984 91.8711 23.8125 91.8711L23.543 91.8828C23.3086 91.8984 23.1328 91.9062 23.0156 91.9062ZM41.625 87.207C41.625 86.8555 41.5156 86.6797 41.2969 86.6797H40.9922C40.7969 86.7188 40.6484 86.7383 40.5469 86.7383C39.8359 86.7383 39.2383 86.9453 38.7539 87.3594C38.2695 87.7734 38.0273 88.2422 38.0273 88.7656V89.0352C38.0273 89.4336 38.1523 89.7773 38.4023 90.0664C38.6523 90.3555 38.957 90.5 39.3164 90.5H39.6914C40.207 90.5 40.6484 90.3398 41.0156 90.0195C41.3828 89.6992 41.5664 89.3867 41.5664 89.082C41.5977 88.9258 41.6133 88.8242 41.6133 88.7773L41.6367 88.5898V88.0859L41.6484 87.8984V87.3828C41.6328 87.3047 41.625 87.2461 41.625 87.207ZM46.3828 90.9219V91.0977C46.3828 91.3633 46.0898 91.6133 45.5039 91.8477C44.918 92.0742 44.2227 92.1875 43.418 92.1875C42.9258 92.1875 42.5 91.9648 42.1406 91.5195C41.9453 91.2695 41.793 91.1445 41.6836 91.1445C41.5742 91.1367 41.3867 91.2266 41.1211 91.4141C40.2305 92.0234 39.2695 92.3281 38.2383 92.3281C38.2305 92.3281 38.2227 92.332 38.2148 92.3398C37.1992 92.3398 36.3867 92.0781 35.7773 91.5547C35.168 91.0312 34.8594 90.2969 34.8516 89.3516C34.8516 87.3203 36.4141 86.043 39.5391 85.5195C40.2891 85.4023 40.7383 85.3125 40.8867 85.25C41.3398 85.0625 41.5664 84.6445 41.5664 83.9961C41.5664 83.3477 41.418 82.8828 41.1211 82.6016C40.832 82.3125 40.4922 82.168 40.1016 82.168C39.4844 82.168 38.9258 82.5 38.4258 83.1641C37.9258 83.8203 37.3438 84.1484 36.6797 84.1484C36.2891 84.1484 35.9922 84.043 35.7891 83.832C35.5938 83.6133 35.4961 83.3906 35.4961 83.1641C35.4961 82.4766 35.8555 81.9297 36.5742 81.5234C37.7695 80.8516 39.0352 80.5156 40.3711 80.5156H40.9805C41.6523 80.5156 42.293 80.6602 42.9023 80.9492C43.5195 81.2305 43.9961 81.6641 44.332 82.25C44.668 82.8359 44.8359 84.1445 44.8359 86.1758C44.8359 88.207 44.8984 89.3789 45.0234 89.6914C45.1562 89.9961 45.4141 90.2227 45.7969 90.3711C46.1875 90.5117 46.3828 90.6953 46.3828 90.9219ZM58.043 80.7383C59.5742 80.7383 60.3438 80.9609 60.3516 81.4062C60.3516 81.6641 59.8633 82.0859 58.8867 82.6719C56.9336 83.8516 55.957 84.8086 55.957 85.543C55.957 85.8086 56.7539 86.8516 58.3477 88.6719C58.9023 89.3047 59.5078 89.8711 60.1641 90.3711C60.8281 90.8711 61.1602 91.2227 61.1602 91.4258C61.1602 91.6211 61.0625 91.7695 60.8672 91.8711C60.6797 91.9648 59.9805 92.0117 58.7695 92.0117H58.3125C57.1406 92.0117 56.3633 91.8203 55.9805 91.4375C55.7539 91.2109 55.5859 90.8203 55.4766 90.2656C55.375 89.7031 55.1992 89.2266 54.9492 88.8359C54.3789 87.9375 53.8359 87.4883 53.3203 87.4883C53 87.4883 52.8398 87.8672 52.8398 88.625C52.8398 89.3828 53 90.0742 53.3203 90.6992C53.4609 90.9727 53.5312 91.1406 53.5312 91.2031C53.5312 91.5469 53.2734 91.7812 52.7578 91.9062C52.4922 91.9688 51.8633 92 50.8711 92C49.8867 92 49.2422 91.9609 48.9375 91.8828C48.4844 91.7656 48.2578 91.5625 48.2578 91.2734C48.2578 91.1094 48.4062 90.7812 48.7031 90.2891C49.0078 89.7891 49.1836 89.4062 49.2305 89.1406C49.3477 88.4688 49.4062 86.3633 49.4062 82.8242C49.4062 79.2852 49.3594 77.3945 49.2656 77.1523C49.1719 76.9023 48.8945 76.6562 48.4336 76.4141C47.9805 76.1719 47.7539 75.9062 47.7539 75.6172C47.7539 75.3203 47.9648 75.0977 48.3867 74.9492C49.1914 74.6602 50.0742 74.5156 51.0352 74.5156H51.4453C51.9375 74.5156 52.2539 74.8008 52.3945 75.3711C52.4961 75.7773 52.5469 77.3164 52.5469 79.9883C52.5469 82.6523 52.5586 84.0703 52.582 84.2422C52.6523 84.7891 52.8164 85.0625 53.0742 85.0625C53.4258 85.0625 54.0312 84.5859 54.8906 83.6328C55.4219 83.0469 55.6875 82.5469 55.6875 82.1328L55.5234 81.4297C55.5234 81.1641 55.6836 80.9844 56.0039 80.8906C56.332 80.7891 57.0117 80.7383 58.043 80.7383ZM67.8984 82.0039H67.5586C67.0664 82.0039 66.5938 82.2617 66.1406 82.7773C65.6953 83.2852 65.4727 83.8945 65.4727 84.6055V84.793C65.4727 85.082 65.6328 85.2266 65.9531 85.2266L66.0703 85.25H66.9023L66.9609 85.2383L68.918 85.1211C69.0352 85.0977 69.1133 85.0859 69.1523 85.0859C69.5508 85.0859 69.75 84.8789 69.75 84.4648V84.0781C69.75 83.5547 69.5625 83.0781 69.1875 82.6484C68.8125 82.2188 68.3828 82.0039 67.8984 82.0039ZM65.6133 87.582C65.6133 88.3633 65.9805 89.0391 66.7148 89.6094C67.2617 90.0391 67.957 90.2539 68.8008 90.2539C69.1836 90.2539 69.75 90.1445 70.5 89.9258C71.2578 89.707 71.6953 89.5977 71.8125 89.5977C72.1641 89.5977 72.3398 89.7891 72.3398 90.1719C72.3398 90.625 71.8711 91.0859 70.9336 91.5547C70.0039 92.0156 69.0391 92.2461 68.0391 92.2461H67.5234C67.5078 92.2461 67.4883 92.2461 67.4648 92.2461C66.832 92.2461 66.1875 92.1172 65.5312 91.8594C64.2344 91.3594 63.3125 90.4844 62.7656 89.2344C62.3906 88.375 62.2031 87.5586 62.2031 86.7852V86.2461C62.2031 85.457 62.3398 84.6953 62.6133 83.9609C63.1289 82.5781 64.0391 81.582 65.3438 80.9727C66.125 80.6133 66.9453 80.4336 67.8047 80.4336H68.0742C69.3477 80.4336 70.4219 80.8281 71.2969 81.6172C71.7578 82.0391 72.1094 82.5469 72.3516 83.1406C72.6016 83.7344 72.7266 84.3398 72.7266 84.957C72.7266 85.5664 72.4258 85.9688 71.8242 86.1641C70.9805 86.4375 69.418 86.5742 67.1367 86.5742C66.5273 86.5742 66.1211 86.6523 65.918 86.8086C65.7148 86.957 65.6133 87.2148 65.6133 87.582ZM80.2266 90.5469H80.4258C81.1367 90.5469 81.6641 90.2773 82.0078 89.7383C82.2422 89.3711 82.3594 88.5469 82.3594 87.2656V85.6367C82.3594 84.2852 82.2188 83.3633 81.9375 82.8711C81.6641 82.3711 81.1289 82.1211 80.332 82.1211H80.2266C79.5078 82.1211 78.9023 82.4922 78.4102 83.2344C77.918 83.9688 77.6719 84.875 77.6719 85.9531V86.7148C77.6719 87.7148 77.8633 88.5352 78.2461 89.1758C78.793 90.0898 79.4531 90.5469 80.2266 90.5469ZM81.9258 80.7852C82.293 80.7852 82.4766 80.3633 82.4766 79.5195C82.4766 78.1445 82.1797 77.1953 81.5859 76.6719C81.1406 76.2891 80.918 76.0352 80.918 75.9102C80.918 75.6602 81.2852 75.418 82.0195 75.1836C82.7539 74.9492 83.4219 74.832 84.0234 74.832C84.625 74.832 85.0156 74.8984 85.1953 75.0312C85.3828 75.1641 85.5078 75.4531 85.5703 75.8984C85.6406 76.3438 85.6758 78.5117 85.6758 82.4023C85.6758 86.2852 85.7188 88.4805 85.8047 88.9883C85.8906 89.4883 86.0508 89.8828 86.2852 90.1719C86.3008 90.1953 86.4492 90.3086 86.7305 90.5117C87.0117 90.7148 87.1523 90.8828 87.1523 91.0156V91.2148C87.1523 91.332 87.0742 91.457 86.918 91.5898C86.4492 91.9805 85.4375 92.1758 83.8828 92.1758C83.4766 92.1758 83.1641 92.0352 82.9453 91.7539C82.7266 91.4727 82.6094 91.332 82.5938 91.332C82.4453 91.3398 82.1914 91.4375 81.832 91.625C80.9961 92.0781 80.2227 92.3047 79.5117 92.3047C79.4961 92.3047 79.4844 92.3047 79.4766 92.3047H79.1719C78.6016 92.3047 78.0352 92.1719 77.4727 91.9062C76.3086 91.3594 75.4883 90.4219 75.0117 89.0938C74.7695 88.4062 74.6484 87.7148 74.6484 87.0195V86.7031C74.6484 86.6797 74.6484 86.6602 74.6484 86.6445C74.6484 85.7461 74.8086 84.9023 75.1289 84.1133C76.043 81.8398 77.7148 80.7031 80.1445 80.7031C80.7461 80.7031 81.1016 80.707 81.2109 80.7148L81.457 80.7383C81.7227 80.7695 81.8789 80.7852 81.9258 80.7852Z" fill="#F6EDE6"/>
</svg>
